<?xml version="1.0" encoding="UTF-8"?>
<svg xmlns="http://www.w3.org/2000/svg" xmlns:xlink="http://www.w3.org/1999/xlink" width="1000pt" height="1000pt" viewBox="0 0 1000 1000" version="1.1">
<g id="surface1">
<path style=" stroke:none;fill-rule:nonzero;fill:rgb(0%,0%,0%);fill-opacity:1;" d="M 708.332031 125 L 208.332031 125 C 162.082031 125 125 162.5 125 208.332031 L 125 791.667969 C 125 837.5 162.082031 875 208.332031 875 L 791.667969 875 C 837.5 875 875 837.5 875 791.667969 L 875 291.667969 Z M 500 791.667969 C 430.832031 791.667969 375 735.832031 375 666.667969 C 375 597.5 430.832031 541.667969 500 541.667969 C 569.167969 541.667969 625 597.5 625 666.667969 C 625 735.832031 569.167969 791.667969 500 791.667969 Z M 625 375 L 208.332031 375 L 208.332031 208.332031 L 625 208.332031 Z M 625 375 "/>
</g>
</svg>
