<?xml version="1.0" encoding="UTF-8"?>
<svg xmlns="http://www.w3.org/2000/svg" xmlns:xlink="http://www.w3.org/1999/xlink" width="1000pt" height="1000pt" viewBox="0 0 1000 1000" version="1.1">
<g id="surface1">
<path style=" stroke:none;fill-rule:nonzero;fill:rgb(0%,0%,0%);fill-opacity:1;" d="M 645.832031 583.332031 L 612.917969 583.332031 L 601.25 572.082031 C 642.082031 524.582031 666.667969 462.917969 666.667969 395.832031 C 666.667969 246.25 545.417969 125 395.832031 125 C 246.25 125 125 246.25 125 395.832031 C 125 545.417969 246.25 666.667969 395.832031 666.667969 C 462.917969 666.667969 524.582031 642.082031 572.082031 601.25 L 583.332031 612.917969 L 583.332031 645.832031 L 791.667969 853.75 L 853.75 791.667969 Z M 395.832031 583.332031 C 292.082031 583.332031 208.332031 499.582031 208.332031 395.832031 C 208.332031 292.082031 292.082031 208.332031 395.832031 208.332031 C 499.582031 208.332031 583.332031 292.082031 583.332031 395.832031 C 583.332031 499.582031 499.582031 583.332031 395.832031 583.332031 Z M 395.832031 583.332031 "/>
</g>
</svg>
