<?xml version="1.0" encoding="UTF-8"?>
<svg xmlns="http://www.w3.org/2000/svg" xmlns:xlink="http://www.w3.org/1999/xlink" width="1000pt" height="1000pt" viewBox="0 0 1000 1000" version="1.1">
<g id="surface1">
<path style=" stroke:none;fill-rule:nonzero;fill:rgb(0%,0%,0%);fill-opacity:1;" d="M 500 333.332031 C 545.832031 333.332031 583.332031 295.832031 583.332031 250 C 583.332031 204.167969 545.832031 166.667969 500 166.667969 C 454.167969 166.667969 416.667969 204.167969 416.667969 250 C 416.667969 295.832031 454.167969 333.332031 500 333.332031 Z M 500 416.667969 C 454.167969 416.667969 416.667969 454.167969 416.667969 500 C 416.667969 545.832031 454.167969 583.332031 500 583.332031 C 545.832031 583.332031 583.332031 545.832031 583.332031 500 C 583.332031 454.167969 545.832031 416.667969 500 416.667969 Z M 500 666.667969 C 454.167969 666.667969 416.667969 704.167969 416.667969 750 C 416.667969 795.832031 454.167969 833.332031 500 833.332031 C 545.832031 833.332031 583.332031 795.832031 583.332031 750 C 583.332031 704.167969 545.832031 666.667969 500 666.667969 Z M 500 666.667969 "/>
</g>
</svg>
