<?xml version="1.0" encoding="UTF-8" standalone="no"?>
<svg
   xmlns:dc="http://purl.org/dc/elements/1.1/"
   xmlns:cc="http://creativecommons.org/ns#"
   xmlns:rdf="http://www.w3.org/1999/02/22-rdf-syntax-ns#"
   xmlns:svg="http://www.w3.org/2000/svg"
   xmlns="http://www.w3.org/2000/svg"
   xmlns:sodipodi="http://sodipodi.sourceforge.net/DTD/sodipodi-0.dtd"
   xmlns:inkscape="http://www.inkscape.org/namespaces/inkscape"
   enable-background="new 0 0 141.732 141.732"
   height="1000"
   id="Livello_1"
   version="1.1"
   viewBox="0 0 1000 1000"
   width="1000"
   xml:space="preserve"
   sodipodi:docname="iconfinder_27_171489.svg"
   inkscape:version="1.0 (4035a4f, 2020-05-01)"><metadata
     id="metadata171"><rdf:RDF><cc:Work
         rdf:about=""><dc:format>image/svg+xml</dc:format><dc:type
           rdf:resource="http://purl.org/dc/dcmitype/StillImage" /><dc:title></dc:title></cc:Work></rdf:RDF></metadata><defs
     id="defs169" /><sodipodi:namedview
     inkscape:document-rotation="0"
     pagecolor="#ffffff"
     bordercolor="#666666"
     borderopacity="1"
     objecttolerance="10"
     gridtolerance="10"
     guidetolerance="10"
     inkscape:pageopacity="0"
     inkscape:pageshadow="2"
     inkscape:window-width="1792"
     inkscape:window-height="1004"
     id="namedview167"
     showgrid="false"
     inkscape:zoom="0.35355339"
     inkscape:cx="878.78154"
     inkscape:cy="823.94051"
     inkscape:window-x="0"
     inkscape:window-y="23"
     inkscape:window-maximized="1"
     inkscape:current-layer="Livello_1" /><g
     id="Livello_29"
     transform="matrix(7.4882878,0,0,7.4882878,-30.655634,0.00749156)"><path
       d="m 105.614,118.681 c 3.398,3.396 3.4,8.912 0,12.311 -3.396,3.399 -8.91,3.398 -12.311,0 -0.02,-0.02 -0.035,-0.04 -0.053,-0.061 l -0.025,0.022 -57.66,-57.66 0.024,-0.022 c -1.61,-1.579 -2.608,-3.775 -2.608,-6.208 -0.002,-2.73 1.258,-5.166 3.229,-6.762 l -0.06,-0.058 57.66,-57.66 0.025,0.024 c 0.018,-0.021 0.033,-0.039 0.053,-0.058 3.4,-3.4 8.912,-3.4 12.312,0 3.398,3.396 3.398,8.908 0,12.311 -0.021,0.02 -0.041,0.034 -0.061,0.054 l 0.023,0.024 -52.119,52.125 51.54,51.54 -0.025,0.021 c 0.015,0.022 0.036,0.036 0.056,0.057"
       id="path162" /></g><g
     id="Livello_1_1_"
     transform="translate(212.81969,433.23006)" /></svg>
