<?xml version="1.0" encoding="UTF-8"?>
<svg xmlns="http://www.w3.org/2000/svg" xmlns:xlink="http://www.w3.org/1999/xlink" width="1000pt" height="1000pt" viewBox="0 0 1000 1000" version="1.1">
<g id="surface1">
<path style=" stroke:none;fill-rule:nonzero;fill:rgb(0%,0%,0%);fill-opacity:1;" d="M 500 1000 C 223.875 1000 0 776.152344 0 500 C 0 223.84375 223.875 0 500 0 C 776.15625 0 1000 223.84375 1000 500 C 1000 776.152344 776.152344 1000 500 1000 Z M 500 125 C 292.90625 125 125 292.90625 125 500 C 125 707.09375 292.90625 875 500 875 C 707.125 875 875 707.09375 875 500 C 875 292.90625 707.125 125 500 125 Z M 562.5 750 L 437.5 750 L 437.5 562.5 L 250 562.5 L 250 437.5 L 437.5 437.5 L 437.5 250 L 562.5 250 L 562.5 437.5 L 750 437.5 L 750 562.5 L 562.5 562.5 Z M 562.5 750 "/>
</g>
</svg>
