<?xml version="1.0" encoding="UTF-8"?>
<svg xmlns="http://www.w3.org/2000/svg" xmlns:xlink="http://www.w3.org/1999/xlink" width="1000pt" height="1000pt" viewBox="0 0 1000 1000" version="1.1">
<g id="surface1">
<path style=" stroke:none;fill-rule:nonzero;fill:rgb(0%,0%,0%);fill-opacity:1;" d="M 727.121094 537.945312 L 441.40625 823.660156 C 437.6875 827.007812 433.40625 828.683594 428.570312 828.683594 C 423.734375 828.683594 419.457031 827.007812 415.738281 823.660156 L 255.023438 662.945312 C 251.675781 659.226562 250 654.949219 250 650.113281 C 250 645.273438 251.675781 641.183594 255.023438 637.835938 L 280.691406 612.164062 C 284.039062 608.816406 288.132812 607.144531 292.96875 607.144531 C 297.804688 607.144531 302.082031 608.816406 305.804688 612.164062 L 428.570312 734.933594 L 676.339844 487.164062 C 680.058594 483.816406 684.335938 482.144531 689.175781 482.144531 C 694.011719 482.144531 698.101562 483.816406 701.449219 487.164062 L 727.121094 512.835938 C 730.46875 516.183594 732.144531 520.273438 732.144531 525.113281 C 732.144531 529.949219 730.46875 534.226562 727.121094 537.945312 Z M 71.429688 928.570312 L 857.144531 928.570312 L 857.144531 357.144531 L 71.429688 357.144531 Z M 285.714844 250 L 285.714844 89.285156 C 285.714844 84.078125 284.039062 79.800781 280.691406 76.449219 C 277.34375 73.101562 273.066406 71.429688 267.855469 71.429688 L 232.144531 71.429688 C 226.933594 71.429688 222.65625 73.101562 219.308594 76.449219 C 215.960938 79.800781 214.285156 84.078125 214.285156 89.285156 L 214.285156 250 C 214.285156 255.207031 215.960938 259.488281 219.308594 262.835938 C 222.65625 266.183594 226.933594 267.855469 232.144531 267.855469 L 267.855469 267.855469 C 273.066406 267.855469 277.34375 266.183594 280.691406 262.835938 C 284.039062 259.488281 285.714844 255.207031 285.714844 250 Z M 714.285156 250 L 714.285156 89.285156 C 714.285156 84.078125 712.613281 79.800781 709.261719 76.449219 C 705.914062 73.101562 701.636719 71.429688 696.429688 71.429688 L 660.714844 71.429688 C 655.507812 71.429688 651.226562 73.101562 647.878906 76.449219 C 644.53125 79.800781 642.855469 84.078125 642.855469 89.285156 L 642.855469 250 C 642.855469 255.207031 644.53125 259.488281 647.878906 262.835938 C 651.226562 266.183594 655.507812 267.855469 660.714844 267.855469 L 696.429688 267.855469 C 701.636719 267.855469 705.914062 266.183594 709.261719 262.835938 C 712.613281 259.488281 714.285156 255.207031 714.285156 250 Z M 928.570312 214.285156 L 928.570312 928.570312 C 928.570312 947.917969 921.503906 964.65625 907.367188 978.792969 C 893.230469 992.929688 876.488281 1000 857.144531 1000 L 71.429688 1000 C 52.082031 1000 35.34375 992.929688 21.207031 978.792969 C 7.070312 964.65625 0 947.917969 0 928.570312 L 0 214.285156 C 0 194.941406 7.070312 178.199219 21.207031 164.0625 C 35.34375 149.925781 52.082031 142.855469 71.429688 142.855469 L 142.855469 142.855469 L 142.855469 89.285156 C 142.855469 64.730469 151.601562 43.710938 169.085938 26.226562 C 186.570312 8.742188 207.589844 0 232.144531 0 L 267.855469 0 C 292.410156 0 313.429688 8.742188 330.914062 26.226562 C 348.398438 43.710938 357.144531 64.730469 357.144531 89.285156 L 357.144531 142.855469 L 571.429688 142.855469 L 571.429688 89.285156 C 571.429688 64.730469 580.171875 43.710938 597.65625 26.226562 C 615.140625 8.742188 636.160156 0 660.714844 0 L 696.429688 0 C 720.980469 0 742 8.742188 759.488281 26.226562 C 776.972656 43.710938 785.714844 64.730469 785.714844 89.285156 L 785.714844 142.855469 L 857.144531 142.855469 C 876.488281 142.855469 893.230469 149.925781 907.367188 164.0625 C 921.503906 178.199219 928.570312 194.941406 928.570312 214.285156 Z M 928.570312 214.285156 "/>
</g>
</svg>
