<?xml version="1.0" encoding="UTF-8"?>
<svg xmlns="http://www.w3.org/2000/svg" xmlns:xlink="http://www.w3.org/1999/xlink" width="1000pt" height="1000pt" viewBox="0 0 1000 1000" version="1.1">
<g id="surface1">
<path style=" stroke:none;fill-rule:nonzero;fill:rgb(0%,0%,0%);fill-opacity:1;" d="M 410.714844 803.570312 C 410.714844 808.035156 408.855469 812.5 405.132812 816.964844 L 227.121094 994.976562 C 223.398438 998.324219 219.121094 1000 214.285156 1000 C 209.820312 1000 205.542969 998.324219 201.449219 994.976562 L 22.878906 816.40625 C 17.300781 810.453125 15.996094 803.945312 18.972656 796.875 C 21.949219 789.433594 27.53125 785.714844 35.714844 785.714844 L 142.855469 785.714844 L 142.855469 17.855469 C 142.855469 12.648438 144.53125 8.371094 147.878906 5.023438 C 151.226562 1.675781 155.507812 0 160.714844 0 L 267.855469 0 C 273.066406 0 277.34375 1.675781 280.691406 5.023438 C 284.039062 8.371094 285.714844 12.648438 285.714844 17.855469 L 285.714844 785.714844 L 392.855469 785.714844 C 398.066406 785.714844 402.34375 787.386719 405.691406 790.738281 C 409.039062 794.085938 410.714844 798.363281 410.714844 803.570312 Z M 1000 875 L 1000 982.144531 C 1000 987.351562 998.324219 991.628906 994.976562 994.976562 C 991.628906 998.324219 987.351562 1000 982.144531 1000 L 517.855469 1000 C 512.648438 1000 508.371094 998.324219 505.023438 994.976562 C 501.675781 991.628906 500 987.351562 500 982.144531 L 500 875 C 500 869.792969 501.675781 865.511719 505.023438 862.164062 C 508.371094 858.816406 512.648438 857.144531 517.855469 857.144531 L 982.144531 857.144531 C 987.351562 857.144531 991.628906 858.816406 994.976562 862.164062 C 998.324219 865.511719 1000 869.792969 1000 875 Z M 892.855469 589.285156 L 892.855469 696.429688 C 892.855469 701.636719 891.183594 705.914062 887.835938 709.261719 C 884.488281 712.613281 880.207031 714.285156 875 714.285156 L 517.855469 714.285156 C 512.648438 714.285156 508.371094 712.613281 505.023438 709.261719 C 501.675781 705.914062 500 701.636719 500 696.429688 L 500 589.285156 C 500 584.078125 501.675781 579.800781 505.023438 576.449219 C 508.371094 573.101562 512.648438 571.429688 517.855469 571.429688 L 875 571.429688 C 880.207031 571.429688 884.488281 573.101562 887.835938 576.449219 C 891.183594 579.800781 892.855469 584.078125 892.855469 589.285156 Z M 785.714844 303.570312 L 785.714844 410.714844 C 785.714844 415.921875 784.039062 420.199219 780.691406 423.550781 C 777.34375 426.898438 773.066406 428.570312 767.855469 428.570312 L 517.855469 428.570312 C 512.648438 428.570312 508.371094 426.898438 505.023438 423.550781 C 501.675781 420.199219 500 415.921875 500 410.714844 L 500 303.570312 C 500 298.363281 501.675781 294.085938 505.023438 290.738281 C 508.371094 287.386719 512.648438 285.714844 517.855469 285.714844 L 767.855469 285.714844 C 773.066406 285.714844 777.34375 287.386719 780.691406 290.738281 C 784.039062 294.085938 785.714844 298.363281 785.714844 303.570312 Z M 678.570312 17.855469 L 678.570312 125 C 678.570312 130.207031 676.898438 134.488281 673.550781 137.835938 C 670.199219 141.183594 665.921875 142.855469 660.714844 142.855469 L 517.855469 142.855469 C 512.648438 142.855469 508.371094 141.183594 505.023438 137.835938 C 501.675781 134.488281 500 130.207031 500 125 L 500 17.855469 C 500 12.648438 501.675781 8.371094 505.023438 5.023438 C 508.371094 1.675781 512.648438 0 517.855469 0 L 660.714844 0 C 665.921875 0 670.199219 1.675781 673.550781 5.023438 C 676.898438 8.371094 678.570312 12.648438 678.570312 17.855469 Z M 678.570312 17.855469 "/>
</g>
</svg>
