<?xml version="1.0" encoding="UTF-8"?>
<svg xmlns="http://www.w3.org/2000/svg" xmlns:xlink="http://www.w3.org/1999/xlink" width="1000pt" height="1000pt" viewBox="0 0 1000 1000" version="1.1">
<g id="surface1">
<path style=" stroke:none;fill-rule:nonzero;fill:rgb(0%,0%,0%);fill-opacity:1;" d="M 794.582031 205.417969 L 735.832031 264.167969 C 795.832031 324.582031 833.332031 407.917969 833.332031 500 C 833.332031 684.167969 684.167969 833.332031 500 833.332031 C 315.832031 833.332031 166.667969 684.167969 166.667969 500 C 166.667969 330 293.75 190 458.332031 169.582031 L 458.332031 253.75 C 340 273.75 250 376.25 250 500 C 250 637.917969 362.082031 750 500 750 C 637.917969 750 750 637.917969 750 500 C 750 430.832031 722.082031 368.332031 676.667969 323.332031 L 617.917969 382.082031 C 647.917969 412.5 666.667969 454.167969 666.667969 500 C 666.667969 592.082031 592.082031 666.667969 500 666.667969 C 407.917969 666.667969 333.332031 592.082031 333.332031 500 C 333.332031 422.5 386.667969 357.917969 458.332031 339.167969 L 458.332031 428.332031 C 433.332031 442.917969 416.667969 469.167969 416.667969 500 C 416.667969 545.832031 454.167969 583.332031 500 583.332031 C 545.832031 583.332031 583.332031 545.832031 583.332031 500 C 583.332031 469.167969 566.667969 442.5 541.667969 428.332031 L 541.667969 83.332031 L 500 83.332031 C 270 83.332031 83.332031 270 83.332031 500 C 83.332031 730 270 916.667969 500 916.667969 C 730 916.667969 916.667969 730 916.667969 500 C 916.667969 385 870 280.832031 794.582031 205.417969 Z M 794.582031 205.417969 "/>
</g>
</svg>
