<?xml version="1.0" encoding="UTF-8"?>
<svg xmlns="http://www.w3.org/2000/svg" xmlns:xlink="http://www.w3.org/1999/xlink" width="1000pt" height="1000pt" viewBox="0 0 1000 1000" version="1.1">
<g id="surface1">
<path style=" stroke:none;fill-rule:nonzero;fill:rgb(0%,0%,0%);fill-opacity:1;" d="M 400 20 C 433.078125 20 460 46.921875 460 80 L 460 400 C 460 433.078125 433.078125 460 400 460 L 80 460 C 46.921875 460 20 433.078125 20 400 L 20 80 C 20 46.921875 46.921875 20 80 20 L 400 20 M 400 0 L 80 0 C 35.820312 0 0 35.820312 0 80 L 0 400 C 0 444.179688 35.820312 480 80 480 L 400 480 C 444.179688 480 480 444.179688 480 400 L 480 80 C 480 35.820312 444.179688 0 400 0 Z M 400 0 "/>
<path style=" stroke:none;fill-rule:nonzero;fill:rgb(0%,0%,0%);fill-opacity:1;" d="M 920 20 C 953.078125 20 980 46.921875 980 80 L 980 400 C 980 433.078125 953.078125 460 920 460 L 600 460 C 566.921875 460 540 433.078125 540 400 L 540 80 C 540 46.921875 566.921875 20 600 20 L 920 20 M 920 0 L 600 0 C 555.820312 0 520 35.820312 520 80 L 520 400 C 520 444.179688 555.820312 480 600 480 L 920 480 C 964.179688 480 1000 444.179688 1000 400 L 1000 80 C 1000 35.820312 964.179688 0 920 0 Z M 920 0 "/>
<path style=" stroke:none;fill-rule:nonzero;fill:rgb(0%,0%,0%);fill-opacity:1;" d="M 400 540 C 433.078125 540 460 566.921875 460 600 L 460 920 C 460 953.078125 433.078125 980 400 980 L 80 980 C 46.921875 980 20 953.078125 20 920 L 20 600 C 20 566.921875 46.921875 540 80 540 L 400 540 M 400 520 L 80 520 C 35.820312 520 0 555.820312 0 600 L 0 920 C 0 964.179688 35.820312 1000 80 1000 L 400 1000 C 444.179688 1000 480 964.179688 480 920 L 480 600 C 480 555.820312 444.179688 520 400 520 Z M 400 520 "/>
<path style=" stroke:none;fill-rule:nonzero;fill:rgb(0%,0%,0%);fill-opacity:1;" d="M 920 540 C 953.078125 540 980 566.921875 980 600 L 980 920 C 980 953.078125 953.078125 980 920 980 L 600 980 C 566.921875 980 540 953.078125 540 920 L 540 600 C 540 566.921875 566.921875 540 600 540 L 920 540 M 920 520 L 600 520 C 555.820312 520 520 555.820312 520 600 L 520 920 C 520 964.179688 555.820312 1000 600 1000 L 920 1000 C 964.179688 1000 1000 964.179688 1000 920 L 1000 600 C 1000 555.820312 964.179688 520 920 520 Z M 920 520 "/>
</g>
</svg>
