<?xml version="1.0" encoding="UTF-8"?>
<svg xmlns="http://www.w3.org/2000/svg" xmlns:xlink="http://www.w3.org/1999/xlink" width="1000pt" height="1000pt" viewBox="0 0 1000 1000" version="1.1">
<g id="surface1">
<path style=" stroke:none;fill-rule:nonzero;fill:rgb(0%,0%,0%);fill-opacity:1;" d="M 897.082031 422.917969 C 884.191406 415.472656 868.308594 415.472656 855.417969 422.917969 L 750 474.167969 L 750 416.667969 C 750 393.65625 731.34375 375 708.332031 375 L 659.167969 375 C 664.019531 361.636719 666.554688 347.546875 666.667969 333.332031 C 666.667969 264.296875 610.703125 208.332031 541.667969 208.332031 C 521.75 208.578125 502.175781 213.578125 484.582031 222.917969 C 451.820312 152.125 374.34375 113.527344 298.101562 130.015625 C 221.859375 146.5 167.25 213.664062 166.667969 291.667969 C 166.972656 321.015625 175.019531 349.761719 190 375 L 125 375 C 101.988281 375 83.332031 393.65625 83.332031 416.667969 L 83.332031 833.332031 C 83.332031 856.34375 101.988281 875 125 875 L 708.332031 875 C 731.34375 875 750 856.34375 750 833.332031 L 750 775.832031 L 856.25 829.167969 C 869.210938 835.699219 884.640625 835.015625 896.972656 827.359375 C 909.308594 819.703125 916.769531 806.183594 916.667969 791.667969 L 916.667969 458.332031 C 916.695312 443.9375 909.292969 430.546875 897.082031 422.917969 Z M 541.667969 291.667969 C 564.679688 291.667969 583.332031 310.320312 583.332031 333.332031 C 583.332031 356.34375 564.679688 375 541.667969 375 C 518.65625 375 500 356.34375 500 333.332031 C 500 310.320312 518.65625 291.667969 541.667969 291.667969 Z M 250 291.667969 C 250 245.644531 287.308594 208.332031 333.332031 208.332031 C 379.355469 208.332031 416.667969 245.644531 416.667969 291.667969 C 416.667969 337.691406 379.355469 375 333.332031 375 C 287.308594 375 250 337.691406 250 291.667969 Z M 666.667969 791.667969 L 166.667969 791.667969 L 166.667969 458.332031 L 666.667969 458.332031 Z M 833.332031 724.167969 L 750 682.5 L 750 567.5 L 833.332031 525.832031 Z M 833.332031 724.167969 "/>
<path style=" stroke:none;fill-rule:nonzero;fill:rgb(0%,0%,0%);fill-opacity:1;" d="M 208.332031 666.667969 L 375 666.667969 L 375 750 L 208.332031 750 Z M 208.332031 666.667969 "/>
</g>
</svg>
