<?xml version="1.0" encoding="UTF-8" standalone="no"?>
<svg
   xmlns:dc="http://purl.org/dc/elements/1.1/"
   xmlns:cc="http://creativecommons.org/ns#"
   xmlns:rdf="http://www.w3.org/1999/02/22-rdf-syntax-ns#"
   xmlns:svg="http://www.w3.org/2000/svg"
   xmlns="http://www.w3.org/2000/svg"
   xmlns:sodipodi="http://sodipodi.sourceforge.net/DTD/sodipodi-0.dtd"
   xmlns:inkscape="http://www.inkscape.org/namespaces/inkscape"
   width="1000pt"
   height="1000pt"
   viewBox="0 0 1000 1000"
   version="1.1"
   id="svg406"
   sodipodi:docname="ic_input_platform.svg"
   inkscape:version="0.92.4 (5da689c313, 2019-01-14)">
  <metadata
     id="metadata412">
    <rdf:RDF>
      <cc:Work
         rdf:about="">
        <dc:format>image/svg+xml</dc:format>
        <dc:type
           rdf:resource="http://purl.org/dc/dcmitype/StillImage" />
      </cc:Work>
    </rdf:RDF>
  </metadata>
  <defs
     id="defs410" />
  <sodipodi:namedview
     pagecolor="#ffffff"
     bordercolor="#666666"
     borderopacity="1"
     objecttolerance="10"
     gridtolerance="10"
     guidetolerance="10"
     inkscape:pageopacity="0"
     inkscape:pageshadow="2"
     inkscape:window-width="2560"
     inkscape:window-height="1346"
     id="namedview408"
     showgrid="false"
     inkscape:zoom="0.177"
     inkscape:cx="666.66667"
     inkscape:cy="666.66667"
     inkscape:window-x="-11"
     inkscape:window-y="-11"
     inkscape:window-maximized="1"
     inkscape:current-layer="svg406" />
  <g
     id="surface1"
     transform="matrix(1.0806236,0,0,1.0806236,-40.311781,-40.311781)">
    <path
       style="fill:#000000;fill-opacity:1;fill-rule:nonzero;stroke:none"
       d="M 961.53906,961.53906 H 38.460938 V 615.38281 H 961.53906 Z M 76.921875,923.07812 H 923.07812 V 653.84766 H 76.921875 Z m 0,0"
       id="path393"
       inkscape:connector-curvature="0" />
    <path
       style="fill:#000000;fill-opacity:1;fill-rule:nonzero;stroke:none"
       d="M 903.84766,653.84766 H 673.07812 V 519.23047 h 230.76954 z m -192.3086,-38.46485 h 153.84375 v -57.6914 H 711.53906 Z m 0,0"
       id="path395"
       inkscape:connector-curvature="0" />
    <path
       style="fill:#000000;fill-opacity:1;fill-rule:nonzero;stroke:none"
       d="M 326.92187,653.84766 H 96.152344 V 519.23047 H 326.92187 Z M 134.61719,615.38281 h 153.84375 v -57.6914 H 134.61719 Z m 0,0"
       id="path397"
       inkscape:connector-curvature="0" />
    <path
       style="fill:#000000;fill-opacity:1;fill-rule:nonzero;stroke:none"
       d="m 480.76953,288.46094 h 38.46094 v 346.15625 h -38.46094 z m 0,0"
       id="path399"
       inkscape:connector-curvature="0" />
    <path
       style="fill:#000000;fill-opacity:1;fill-rule:nonzero;stroke:none"
       d="m 500,307.69141 c -74.21875,0 -134.61719,-60.38672 -134.61719,-134.61329 0,-74.230464 60.39844,-134.617182 134.61719,-134.617182 74.21875,0 134.61719,60.386718 134.61719,134.617182 0,74.22657 -60.39844,134.61329 -134.61719,134.61329 z m 0,-230.769535 c -53.01563,0 -96.15234,43.140625 -96.15234,96.156245 0,53.01563 43.13671,96.15235 96.15234,96.15235 53.01562,0 96.15234,-43.13672 96.15234,-96.15235 0,-53.01562 -43.13672,-96.156245 -96.15234,-96.156245 z m 0,0"
       id="path401"
       inkscape:connector-curvature="0" />
    <path
       style="fill:#000000;fill-opacity:1;fill-rule:nonzero;stroke:none"
       d="m 461.53906,173.07812 h -38.46094 c 0,-42.41406 34.4961,-76.925776 76.92188,-76.925776 v 38.464846 c -21.20313,0 -38.46094,17.24609 -38.46094,38.46093 z m 0,0"
       id="path403"
       inkscape:connector-curvature="0" />
  </g>
</svg>
