<?xml version="1.0" encoding="UTF-8"?>
<svg xmlns="http://www.w3.org/2000/svg" xmlns:xlink="http://www.w3.org/1999/xlink" width="1000pt" height="1000pt" viewBox="0 0 1000 1000" version="1.1">
<g id="surface1">
<path style=" stroke:none;fill-rule:evenodd;fill:rgb(0%,0%,0%);fill-opacity:1;" d="M 979.167969 833.332031 C 979.167969 890.875 932.542969 937.5 875 937.5 L 125 937.5 C 67.457031 937.5 20.832031 890.875 20.832031 833.332031 L 20.832031 229.167969 C 20.832031 183.144531 58.144531 145.832031 104.167969 145.832031 L 524.394531 145.832031 L 693.125 84.707031 C 703.8125 80.8125 715.644531 86.332031 719.542969 96.980469 L 737.3125 145.832031 L 812.5 145.832031 C 858.519531 145.832031 895.832031 183.144531 895.832031 229.167969 L 895.832031 270.832031 C 941.855469 270.832031 979.167969 308.144531 979.167969 354.167969 Z M 104.167969 187.5 C 81.167969 187.5 62.5 206.167969 62.5 229.167969 C 62.5 252.167969 81.167969 270.832031 104.167969 270.832031 L 179.875 270.832031 C 180.144531 270.730469 180.3125 270.5 180.582031 270.394531 L 409.375 187.5 Z M 709.957031 191.269531 L 687.832031 130.355469 L 687.8125 130.355469 L 645.082031 145.832031 L 645.144531 145.832031 L 530.269531 187.5 L 530.0625 187.5 L 300.082031 270.832031 L 738.875 270.832031 Z M 854.167969 229.167969 C 854.167969 206.167969 835.5 187.5 812.5 187.5 L 752.4375 187.5 L 782.730469 270.832031 L 854.167969 270.832031 Z M 895.832031 312.5 L 104.167969 312.5 C 88.917969 312.5 74.792969 308.105469 62.5 300.9375 L 62.5 833.332031 C 62.5 867.855469 90.5 895.832031 125 895.832031 L 875 895.832031 C 909.519531 895.832031 937.5 867.855469 937.5 833.332031 L 937.5 687.5 L 854.167969 687.5 C 808.144531 687.5 770.832031 650.1875 770.832031 604.167969 C 770.832031 558.144531 808.144531 520.832031 854.167969 520.832031 L 937.5 520.832031 L 937.5 354.167969 C 937.5 331.167969 918.832031 312.5 895.832031 312.5 Z M 937.5 645.832031 L 937.5 562.5 L 854.167969 562.5 C 831.167969 562.5 812.5 581.167969 812.5 604.167969 C 812.5 627.167969 831.167969 645.832031 854.167969 645.832031 Z M 854.167969 583.332031 L 895.832031 583.332031 L 895.832031 625 L 854.167969 625 Z M 854.167969 583.332031 "/>
</g>
</svg>
