<?xml version="1.0" encoding="UTF-8"?>
<svg xmlns="http://www.w3.org/2000/svg" xmlns:xlink="http://www.w3.org/1999/xlink" width="1000pt" height="1000pt" viewBox="0 0 1000 1000" version="1.1">
<g id="surface1">
<path style=" stroke:none;fill-rule:nonzero;fill:rgb(0%,0%,0%);fill-opacity:1;" d="M 500 125 C 292.917969 125 125 292.917969 125 500 C 125 707.082031 292.917969 875 500 875 C 534.582031 875 562.5 847.082031 562.5 812.5 C 562.5 796.25 556.25 781.667969 546.25 770.417969 C 536.667969 759.582031 530.417969 745 530.417969 729.167969 C 530.417969 694.582031 558.332031 666.667969 592.917969 666.667969 L 666.667969 666.667969 C 781.667969 666.667969 875 573.332031 875 458.332031 C 875 274.167969 707.082031 125 500 125 Z M 270.832031 500 C 236.25 500 208.332031 472.082031 208.332031 437.5 C 208.332031 402.917969 236.25 375 270.832031 375 C 305.417969 375 333.332031 402.917969 333.332031 437.5 C 333.332031 472.082031 305.417969 500 270.832031 500 Z M 395.832031 333.332031 C 361.25 333.332031 333.332031 305.417969 333.332031 270.832031 C 333.332031 236.25 361.25 208.332031 395.832031 208.332031 C 430.417969 208.332031 458.332031 236.25 458.332031 270.832031 C 458.332031 305.417969 430.417969 333.332031 395.832031 333.332031 Z M 604.167969 333.332031 C 569.582031 333.332031 541.667969 305.417969 541.667969 270.832031 C 541.667969 236.25 569.582031 208.332031 604.167969 208.332031 C 638.75 208.332031 666.667969 236.25 666.667969 270.832031 C 666.667969 305.417969 638.75 333.332031 604.167969 333.332031 Z M 729.167969 500 C 694.582031 500 666.667969 472.082031 666.667969 437.5 C 666.667969 402.917969 694.582031 375 729.167969 375 C 763.75 375 791.667969 402.917969 791.667969 437.5 C 791.667969 472.082031 763.75 500 729.167969 500 Z M 729.167969 500 "/>
</g>
</svg>
