<?xml version="1.0" encoding="UTF-8" standalone="no"?>
<svg
   xmlns:dc="http://purl.org/dc/elements/1.1/"
   xmlns:cc="http://creativecommons.org/ns#"
   xmlns:rdf="http://www.w3.org/1999/02/22-rdf-syntax-ns#"
   xmlns:svg="http://www.w3.org/2000/svg"
   xmlns="http://www.w3.org/2000/svg"
   xmlns:sodipodi="http://sodipodi.sourceforge.net/DTD/sodipodi-0.dtd"
   xmlns:inkscape="http://www.inkscape.org/namespaces/inkscape"
   width="1000pt"
   height="1000pt"
   viewBox="0 0 1000 1000"
   version="1.1"
   id="svg174"
   sodipodi:docname="ic_input_complete_date.svg"
   inkscape:version="0.92.4 (5da689c313, 2019-01-14)">
  <metadata
     id="metadata180">
    <rdf:RDF>
      <cc:Work
         rdf:about="">
        <dc:format>image/svg+xml</dc:format>
        <dc:type
           rdf:resource="http://purl.org/dc/dcmitype/StillImage" />
      </cc:Work>
    </rdf:RDF>
  </metadata>
  <defs
     id="defs178" />
  <sodipodi:namedview
     pagecolor="#ffffff"
     bordercolor="#666666"
     borderopacity="1"
     objecttolerance="10"
     gridtolerance="10"
     guidetolerance="10"
     inkscape:pageopacity="0"
     inkscape:pageshadow="2"
     inkscape:window-width="2560"
     inkscape:window-height="1346"
     id="namedview176"
     showgrid="false"
     inkscape:zoom="0.177"
     inkscape:cx="666.66667"
     inkscape:cy="666.66667"
     inkscape:window-x="-11"
     inkscape:window-y="-11"
     inkscape:window-maximized="1"
     inkscape:current-layer="svg174" />
  <g
     id="surface1"
     transform="matrix(0.99749997,0,0,0.99749997,36.875557,1.2499997)">
    <path
       style="fill:#000000;fill-opacity:1;fill-rule:nonzero;stroke:none"
       d="M 727.12109,537.94531 441.40625,823.66016 c -3.71875,3.34765 -8,5.02343 -12.83594,5.02343 -4.83594,0 -9.11328,-1.67578 -12.83203,-5.02343 L 255.02344,662.94531 C 251.67578,659.22656 250,654.94922 250,650.11328 c 0,-4.83984 1.67578,-8.92969 5.02344,-12.27734 l 25.66797,-25.67188 c 3.34765,-3.34765 7.4414,-5.01953 12.27734,-5.01953 4.83594,0 9.11328,1.67188 12.83594,5.01953 L 428.57031,734.93359 676.33984,487.16406 c 3.71875,-3.34765 7.9961,-5.01953 12.83594,-5.01953 4.83594,0 8.92578,1.67188 12.27344,5.01953 l 25.67187,25.67188 c 3.34766,3.34765 5.02344,7.4375 5.02344,12.27734 0,4.83594 -1.67578,9.11328 -5.02344,12.83203 z M 71.429688,928.57031 H 857.14453 V 357.14453 H 71.429688 Z M 285.71484,250 V 89.285156 c 0,-5.207031 -1.67578,-9.484375 -5.02343,-12.835937 -3.34766,-3.347657 -7.625,-5.019531 -12.83594,-5.019531 h -35.71094 c -5.21094,0 -9.48828,1.671874 -12.83594,5.019531 -3.34765,3.351562 -5.02343,7.628906 -5.02343,12.835937 V 250 c 0,5.20703 1.67578,9.48828 5.02343,12.83594 3.34766,3.34765 7.625,5.01953 12.83594,5.01953 h 35.71094 c 5.21094,0 9.48828,-1.67188 12.83594,-5.01953 3.34765,-3.34766 5.02343,-7.62891 5.02343,-12.83594 z m 428.57032,0 V 89.285156 c 0,-5.207031 -1.67188,-9.484375 -5.02344,-12.835937 -3.34766,-3.347657 -7.625,-5.019531 -12.83203,-5.019531 h -35.71485 c -5.20703,0 -9.48828,1.671874 -12.83593,5.019531 -3.34766,3.351562 -5.02344,7.628906 -5.02344,12.835937 V 250 c 0,5.20703 1.67578,9.48828 5.02344,12.83594 3.34765,3.34765 7.6289,5.01953 12.83593,5.01953 h 35.71485 c 5.20703,0 9.48437,-1.67188 12.83203,-5.01953 3.35156,-3.34766 5.02344,-7.62891 5.02344,-12.83594 z m 214.28515,-35.71484 v 714.28515 c 0,19.34766 -7.0664,36.08594 -21.20312,50.22266 C 893.23047,992.92969 876.48828,1000 857.14453,1000 H 71.429688 C 52.082031,1000 35.34375,992.92969 21.207031,978.79297 7.070312,964.65625 0,947.91797 0,928.57031 V 214.28516 c 0,-19.34375 7.070312,-36.08594 21.207031,-50.22266 14.136719,-14.13672 30.875,-21.20703 50.222657,-21.20703 H 142.85547 V 89.285156 c 0,-24.554687 8.74609,-45.574218 26.23047,-63.058594 C 186.57031,8.742188 207.58984,0 232.14453,0 h 35.71094 c 24.55469,0 45.57422,8.742188 63.05859,26.226562 17.48438,17.484376 26.23047,38.503907 26.23047,63.058594 V 142.85547 H 571.42969 V 89.285156 c 0,-24.554687 8.74218,-45.574218 26.22656,-63.058594 C 615.14062,8.742188 636.16016,0 660.71484,0 h 35.71485 C 720.98047,0 742,8.742188 759.48828,26.226562 c 17.48438,17.484376 26.22656,38.503907 26.22656,63.058594 v 53.570314 h 71.42969 c 19.34375,0 36.08594,7.07031 50.22266,21.20703 14.13672,14.13672 21.20312,30.87891 21.20312,50.22266 z m 0,0"
       id="path171"
       inkscape:connector-curvature="0" />
  </g>
</svg>
