<?xml version="1.0" encoding="UTF-8" standalone="no"?>
<svg
   xmlns:dc="http://purl.org/dc/elements/1.1/"
   xmlns:cc="http://creativecommons.org/ns#"
   xmlns:rdf="http://www.w3.org/1999/02/22-rdf-syntax-ns#"
   xmlns:svg="http://www.w3.org/2000/svg"
   xmlns="http://www.w3.org/2000/svg"
   xmlns:sodipodi="http://sodipodi.sourceforge.net/DTD/sodipodi-0.dtd"
   xmlns:inkscape="http://www.inkscape.org/namespaces/inkscape"
   width="1000pt"
   height="1000pt"
   viewBox="0 0 1000 1000"
   version="1.1"
   id="svg200"
   sodipodi:docname="ic_input_in_production.svg"
   inkscape:version="0.92.4 (5da689c313, 2019-01-14)">
  <metadata
     id="metadata206">
    <rdf:RDF>
      <cc:Work
         rdf:about="">
        <dc:format>image/svg+xml</dc:format>
        <dc:type
           rdf:resource="http://purl.org/dc/dcmitype/StillImage" />
      </cc:Work>
    </rdf:RDF>
  </metadata>
  <defs
     id="defs204" />
  <sodipodi:namedview
     pagecolor="#ffffff"
     bordercolor="#666666"
     borderopacity="1"
     objecttolerance="10"
     gridtolerance="10"
     guidetolerance="10"
     inkscape:pageopacity="0"
     inkscape:pageshadow="2"
     inkscape:window-width="2560"
     inkscape:window-height="1346"
     id="namedview202"
     showgrid="false"
     inkscape:zoom="0.177"
     inkscape:cx="666.66667"
     inkscape:cy="666.66667"
     inkscape:window-x="-11"
     inkscape:window-y="-11"
     inkscape:window-maximized="1"
     inkscape:current-layer="svg200" />
  <g
     id="surface1"
     transform="matrix(1.1969948,0,0,1.1969948,-98.498029,-99.235737)">
    <path
       style="fill:#000000;fill-opacity:1;fill-rule:nonzero;stroke:none"
       d="m 897.08203,422.91797 c -12.89062,-7.44531 -28.77344,-7.44531 -41.66406,0 L 750,474.16797 v -57.5 C 750,393.65625 731.34375,375 708.33203,375 h -49.16406 c 4.85156,-13.36328 7.38672,-27.45313 7.5,-41.66797 0,-69.03516 -55.96485,-125 -125,-125 -19.91797,0.24609 -39.49219,5.24609 -57.08594,14.58594 C 451.82031,152.125 374.34375,113.52734 298.10156,130.01562 221.85937,146.5 167.25,213.66406 166.66797,291.66797 166.97266,321.01562 175.01953,349.76172 190,375 h -65 c -23.01172,0 -41.667969,18.65625 -41.667969,41.66797 V 833.33203 C 83.332031,856.34375 101.98828,875 125,875 H 708.33203 C 731.34375,875 750,856.34375 750,833.33203 v -57.5 l 106.25,53.33594 c 12.96094,6.53125 28.39062,5.84765 40.72266,-1.8086 12.33593,-7.65625 19.79687,-21.17578 19.69531,-35.6914 V 458.33203 c 0.0273,-14.39453 -7.375,-27.78516 -19.58594,-35.41406 z m -355.41406,-131.25 c 23.01172,0 41.66406,18.65234 41.66406,41.66406 C 583.33203,356.34375 564.67969,375 541.66797,375 518.65625,375 500,356.34375 500,333.33203 c 0,-23.01172 18.65625,-41.66406 41.66797,-41.66406 z m -291.66797,0 c 0,-46.02344 37.30859,-83.33594 83.33203,-83.33594 46.02344,0 83.33594,37.3125 83.33594,83.33594 C 416.66797,337.69141 379.35547,375 333.33203,375 287.30859,375 250,337.69141 250,291.66797 Z m 416.66797,500 h -500 V 458.33203 h 500 z m 166.66406,-67.5 L 750,682.5 v -115 l 83.33203,-41.66797 z m 0,0"
       id="path195"
       inkscape:connector-curvature="0" />
    <path
       style="fill:#000000;fill-opacity:1;fill-rule:nonzero;stroke:none"
       d="M 208.33203,666.66797 H 375 V 750 H 208.33203 Z m 0,0"
       id="path197"
       inkscape:connector-curvature="0" />
  </g>
</svg>
