<?xml version="1.0" encoding="UTF-8"?>
<svg xmlns="http://www.w3.org/2000/svg" xmlns:xlink="http://www.w3.org/1999/xlink" width="1000pt" height="1000pt" viewBox="0 0 1000 1000" version="1.1">
<g id="surface1">
<path style=" stroke:none;fill-rule:nonzero;fill:rgb(0%,0%,0%);fill-opacity:1;" d="M 883.332031 684.484375 L 883.332031 483.332031 L 516.667969 483.332031 L 516.667969 316.667969 L 633.332031 316.667969 L 633.332031 50 L 366.667969 50 L 366.667969 316.667969 L 483.332031 316.667969 L 483.332031 483.332031 L 116.667969 483.332031 L 116.667969 684.484375 C 51 692.734375 0 748.800781 0 816.667969 C 0 890.183594 59.816406 950 133.332031 950 C 206.851562 950 266.667969 890.183594 266.667969 816.667969 C 266.667969 748.800781 215.667969 692.734375 150 684.484375 L 150 516.667969 L 483.332031 516.667969 L 483.332031 684.484375 C 417.667969 692.734375 366.667969 748.800781 366.667969 816.667969 C 366.667969 890.183594 426.484375 950 500 950 C 573.515625 950 633.332031 890.183594 633.332031 816.667969 C 633.332031 748.800781 582.332031 692.734375 516.667969 684.484375 L 516.667969 516.667969 L 850 516.667969 L 850 684.484375 C 784.332031 692.734375 733.332031 748.800781 733.332031 816.667969 C 733.332031 890.183594 793.148438 950 866.667969 950 C 940.183594 950 1000 890.183594 1000 816.667969 C 1000 748.800781 949 692.734375 883.332031 684.484375 Z M 400 83.332031 L 600 83.332031 L 600 283.332031 L 400 283.332031 Z M 233.332031 816.667969 C 233.332031 871.816406 188.484375 916.667969 133.332031 916.667969 C 78.183594 916.667969 33.332031 871.816406 33.332031 816.667969 C 33.332031 761.515625 78.183594 716.667969 133.332031 716.667969 C 188.484375 716.667969 233.332031 761.515625 233.332031 816.667969 Z M 600 816.667969 C 600 871.816406 555.148438 916.667969 500 916.667969 C 444.851562 916.667969 400 871.816406 400 816.667969 C 400 761.515625 444.851562 716.667969 500 716.667969 C 555.148438 716.667969 600 761.515625 600 816.667969 Z M 866.667969 916.667969 C 811.515625 916.667969 766.667969 871.816406 766.667969 816.667969 C 766.667969 761.515625 811.515625 716.667969 866.667969 716.667969 C 921.816406 716.667969 966.667969 761.515625 966.667969 816.667969 C 966.667969 871.816406 921.816406 916.667969 866.667969 916.667969 Z M 866.667969 916.667969 "/>
</g>
</svg>
