<?xml version="1.0" encoding="UTF-8" standalone="no"?>
<svg
   xmlns:dc="http://purl.org/dc/elements/1.1/"
   xmlns:cc="http://creativecommons.org/ns#"
   xmlns:rdf="http://www.w3.org/1999/02/22-rdf-syntax-ns#"
   xmlns:svg="http://www.w3.org/2000/svg"
   xmlns="http://www.w3.org/2000/svg"
   xmlns:sodipodi="http://sodipodi.sourceforge.net/DTD/sodipodi-0.dtd"
   xmlns:inkscape="http://www.inkscape.org/namespaces/inkscape"
   width="1000pt"
   height="1000pt"
   viewBox="0 0 1000 1000"
   version="1.1"
   id="svg456"
   sodipodi:docname="ic_input_publisher.svg"
   inkscape:version="0.92.4 (5da689c313, 2019-01-14)">
  <metadata
     id="metadata462">
    <rdf:RDF>
      <cc:Work
         rdf:about="">
        <dc:format>image/svg+xml</dc:format>
        <dc:type
           rdf:resource="http://purl.org/dc/dcmitype/StillImage" />
      </cc:Work>
    </rdf:RDF>
  </metadata>
  <defs
     id="defs460" />
  <sodipodi:namedview
     pagecolor="#ffffff"
     bordercolor="#666666"
     borderopacity="1"
     objecttolerance="10"
     gridtolerance="10"
     guidetolerance="10"
     inkscape:pageopacity="0"
     inkscape:pageshadow="2"
     inkscape:window-width="2560"
     inkscape:window-height="1346"
     id="namedview458"
     showgrid="false"
     inkscape:zoom="0.177"
     inkscape:cx="666.66667"
     inkscape:cy="666.66667"
     inkscape:window-x="-11"
     inkscape:window-y="-11"
     inkscape:window-maximized="1"
     inkscape:current-layer="svg456" />
  <g
     id="surface1"
     transform="matrix(1.0408667,0,0,1.0408667,-20.433366,-31.340498)">
    <path
       style="fill:#000000;fill-opacity:1;fill-rule:evenodd;stroke:none"
       d="M 979.16797,833.33203 C 979.16797,890.875 932.54297,937.5 875,937.5 H 125 C 67.457031,937.5 20.832031,890.875 20.832031,833.33203 V 229.16797 c 0,-46.02344 37.3125,-83.33594 83.335939,-83.33594 H 524.39453 L 693.125,84.707031 c 10.6875,-3.894531 22.51953,1.625 26.41797,12.273438 L 737.3125,145.83203 H 812.5 c 46.01953,0 83.33203,37.3125 83.33203,83.33594 v 41.66406 c 46.02344,0 83.33594,37.3125 83.33594,83.33594 z M 104.16797,187.5 C 81.167969,187.5 62.5,206.16797 62.5,229.16797 c 0,23 18.667969,41.66406 41.66797,41.66406 H 179.875 c 0.26953,-0.10156 0.4375,-0.33203 0.70703,-0.4375 L 409.375,187.5 Z m 605.78906,3.76953 -22.125,-60.91406 h -0.0195 l -42.73047,15.47656 h 0.0625 L 530.26953,187.5 H 530.0625 L 300.08203,270.83203 H 738.875 Z m 144.21094,37.89844 C 854.16797,206.16797 835.5,187.5 812.5,187.5 h -60.0625 l 30.29297,83.33203 h 71.4375 z M 895.83203,312.5 H 104.16797 C 88.917969,312.5 74.792969,308.10547 62.5,300.9375 v 532.39453 c 0,34.52344 28,62.5 62.5,62.5 h 750 c 34.51953,0 62.5,-27.97656 62.5,-62.5 V 687.5 h -83.33203 c -46.02344,0 -83.33594,-37.3125 -83.33594,-83.33203 0,-46.02344 37.3125,-83.33594 83.33594,-83.33594 H 937.5 V 354.16797 c 0,-23 -18.66797,-41.66797 -41.66797,-41.66797 z M 937.5,645.83203 V 562.5 h -83.33203 c -23,0 -41.66797,18.66797 -41.66797,41.66797 0,23 18.66797,41.66406 41.66797,41.66406 z m -83.33203,-62.5 h 41.66406 V 625 h -41.66406 z m 0,0"
       id="path453"
       inkscape:connector-curvature="0" />
  </g>
</svg>
