<?xml version="1.0" encoding="UTF-8"?>
<svg xmlns="http://www.w3.org/2000/svg" xmlns:xlink="http://www.w3.org/1999/xlink" width="1000pt" height="1000pt" viewBox="0 0 1000 1000" version="1.1">
<g id="surface1">
<path style=" stroke:none;fill-rule:nonzero;fill:rgb(0%,0%,0%);fill-opacity:1;" d="M 812.5 93.75 L 187.5 93.75 C 135.722656 93.75 93.75 135.722656 93.75 187.5 L 93.75 950.3125 L 253.75 790.3125 C 259.738281 784.601562 267.664062 781.363281 275.9375 781.25 L 812.5 781.25 C 864.277344 781.25 906.25 739.277344 906.25 687.5 L 906.25 187.5 C 906.25 135.722656 864.277344 93.75 812.5 93.75 Z M 843.75 687.5 C 843.75 704.757812 829.757812 718.75 812.5 718.75 L 275.9375 718.75 C 251.082031 718.773438 227.253906 728.664062 209.6875 746.25 L 156.25 799.6875 L 156.25 187.5 C 156.25 170.242188 170.242188 156.25 187.5 156.25 L 812.5 156.25 C 829.757812 156.25 843.75 170.242188 843.75 187.5 Z M 843.75 687.5 "/>
<path style=" stroke:none;fill-rule:nonzero;fill:rgb(0%,0%,0%);fill-opacity:1;" d="M 312.5 343.75 L 687.5 343.75 L 687.5 406.25 L 312.5 406.25 Z M 312.5 343.75 "/>
<path style=" stroke:none;fill-rule:nonzero;fill:rgb(0%,0%,0%);fill-opacity:1;" d="M 312.5 468.75 L 531.25 468.75 L 531.25 531.25 L 312.5 531.25 Z M 312.5 468.75 "/>
</g>
</svg>
