<?xml version="1.0" encoding="UTF-8"?>
<svg xmlns="http://www.w3.org/2000/svg" xmlns:xlink="http://www.w3.org/1999/xlink" width="1000pt" height="1000pt" viewBox="0 0 1000 1000" version="1.1">
<g id="surface1">
<path style=" stroke:none;fill-rule:nonzero;fill:rgb(0%,0%,0%);fill-opacity:1;" d="M 839.554688 109.640625 L 809.054688 109.640625 L 809.054688 76.390625 C 809.054688 34.277344 775.75 0 734.890625 0 C 693.972656 0 660.722656 34.277344 660.722656 76.390625 L 660.722656 109.640625 L 584.554688 109.640625 L 584.554688 76.390625 C 584.554688 34.277344 551.332031 0 510.445312 0 C 469.554688 0 436.304688 34.277344 436.304688 76.390625 L 436.304688 109.640625 L 360.167969 109.640625 L 360.167969 76.390625 C 360.167969 34.277344 326.890625 0 286 0 C 245.109375 0 211.832031 34.277344 211.832031 76.390625 L 211.832031 109.640625 L 172.890625 109.640625 C 107.804688 109.640625 54.832031 162.609375 54.832031 227.695312 L 54.832031 894.359375 C 54.832031 959.445312 107.804688 1012.417969 172.890625 1012.417969 L 839.554688 1012.417969 C 904.640625 1012.417969 957.609375 959.445312 957.609375 894.359375 L 957.609375 227.695312 C 957.609375 162.609375 904.609375 109.640625 839.554688 109.640625 Z M 702.390625 76.390625 C 702.390625 57.25 716.945312 41.667969 734.890625 41.667969 C 752.804688 41.667969 767.390625 57.25 767.390625 76.390625 L 767.390625 212.359375 C 767.390625 231.5 752.804688 247.082031 734.890625 247.082031 C 716.945312 247.082031 702.390625 231.5 702.390625 212.359375 Z M 477.972656 76.390625 C 477.972656 57.25 492.527344 41.667969 510.445312 41.667969 C 528.359375 41.667969 542.890625 57.25 542.890625 76.390625 L 542.890625 212.359375 C 542.890625 231.5 528.359375 247.082031 510.445312 247.082031 C 492.527344 247.082031 477.972656 231.5 477.972656 212.359375 Z M 253.472656 76.390625 C 253.472656 57.25 268.054688 41.667969 285.972656 41.667969 C 303.890625 41.667969 318.472656 57.25 318.472656 76.390625 L 318.472656 212.359375 C 318.472656 231.5 303.890625 247.082031 285.972656 247.082031 C 268.054688 247.082031 253.472656 231.5 253.472656 212.359375 Z M 888.167969 894.359375 C 888.167969 921.167969 866.359375 942.972656 839.554688 942.972656 L 172.890625 942.972656 C 146.082031 942.972656 124.277344 921.167969 124.277344 894.359375 L 124.277344 394.359375 L 888.167969 394.359375 Z M 888.167969 894.359375 "/>
<path style=" stroke:none;fill-rule:nonzero;fill:rgb(0%,0%,0%);fill-opacity:1;" d="M 459.082031 847.472656 L 701.195312 676.917969 L 459.082031 506.195312 L 459.082031 612.832031 L 319.695312 612.832031 L 319.695312 740.832031 L 459.082031 740.832031 Z M 459.082031 847.472656 "/>
</g>
</svg>
