<?xml version="1.0" encoding="UTF-8"?>
<svg xmlns="http://www.w3.org/2000/svg" xmlns:xlink="http://www.w3.org/1999/xlink" width="1000pt" height="1000pt" viewBox="0 0 1000 1000" version="1.1">
<g id="surface1">
<path style=" stroke:none;fill-rule:nonzero;fill:rgb(0%,0%,0%);fill-opacity:1;" d="M 961.539062 961.539062 L 38.460938 961.539062 L 38.460938 615.382812 L 961.539062 615.382812 Z M 76.921875 923.078125 L 923.078125 923.078125 L 923.078125 653.847656 L 76.921875 653.847656 Z M 76.921875 923.078125 "/>
<path style=" stroke:none;fill-rule:nonzero;fill:rgb(0%,0%,0%);fill-opacity:1;" d="M 903.847656 653.847656 L 673.078125 653.847656 L 673.078125 519.230469 L 903.847656 519.230469 Z M 711.539062 615.382812 L 865.382812 615.382812 L 865.382812 557.691406 L 711.539062 557.691406 Z M 711.539062 615.382812 "/>
<path style=" stroke:none;fill-rule:nonzero;fill:rgb(0%,0%,0%);fill-opacity:1;" d="M 326.921875 653.847656 L 96.152344 653.847656 L 96.152344 519.230469 L 326.921875 519.230469 Z M 134.617188 615.382812 L 288.460938 615.382812 L 288.460938 557.691406 L 134.617188 557.691406 Z M 134.617188 615.382812 "/>
<path style=" stroke:none;fill-rule:nonzero;fill:rgb(0%,0%,0%);fill-opacity:1;" d="M 480.769531 288.460938 L 519.230469 288.460938 L 519.230469 634.617188 L 480.769531 634.617188 Z M 480.769531 288.460938 "/>
<path style=" stroke:none;fill-rule:nonzero;fill:rgb(0%,0%,0%);fill-opacity:1;" d="M 500 307.691406 C 425.78125 307.691406 365.382812 247.304688 365.382812 173.078125 C 365.382812 98.847656 425.78125 38.460938 500 38.460938 C 574.21875 38.460938 634.617188 98.847656 634.617188 173.078125 C 634.617188 247.304688 574.21875 307.691406 500 307.691406 Z M 500 76.921875 C 446.984375 76.921875 403.847656 120.0625 403.847656 173.078125 C 403.847656 226.09375 446.984375 269.230469 500 269.230469 C 553.015625 269.230469 596.152344 226.09375 596.152344 173.078125 C 596.152344 120.0625 553.015625 76.921875 500 76.921875 Z M 500 76.921875 "/>
<path style=" stroke:none;fill-rule:nonzero;fill:rgb(0%,0%,0%);fill-opacity:1;" d="M 461.539062 173.078125 L 423.078125 173.078125 C 423.078125 130.664062 457.574219 96.152344 500 96.152344 L 500 134.617188 C 478.796875 134.617188 461.539062 151.863281 461.539062 173.078125 Z M 461.539062 173.078125 "/>
</g>
</svg>
