<?xml version="1.0" encoding="UTF-8"?>
<svg xmlns="http://www.w3.org/2000/svg" xmlns:xlink="http://www.w3.org/1999/xlink" width="1000pt" height="1000pt" viewBox="0 0 1000 1000" version="1.1">
<g id="surface1">
<path style=" stroke:none;fill-rule:nonzero;fill:rgb(0%,0%,0%);fill-opacity:1;" d="M 500 981.398438 L 976.179688 800 L 713.679688 700 L 976.179688 600 L 713.679688 500 L 976.179688 400 L 713.679688 300 L 976.179688 200 L 500 18.601562 L 23.820312 200 L 286.320312 300 L 23.820312 400 L 286.320312 500 L 23.820312 600 L 286.320312 700 L 23.820312 800 Z M 136.179688 200 L 500 61.398438 L 863.820312 200 L 657.5 278.601562 L 500 338.601562 L 342.5 278.601562 Z M 136.179688 400 L 342.5 321.398438 L 500 381.398438 L 657.5 321.398438 L 863.820312 400 L 657.5 478.601562 L 500 538.601562 L 342.5 478.601562 Z M 136.179688 600 L 342.5 521.398438 L 500 581.398438 L 657.5 521.398438 L 863.820312 600 L 657.5 678.601562 L 500 738.601562 L 342.5 678.601562 Z M 657.5 721.398438 L 863.820312 800 L 500 938.601562 L 136.179688 800 L 342.5 721.398438 L 500 781.398438 Z M 657.5 721.398438 "/>
</g>
</svg>
