<?xml version="1.0" encoding="UTF-8"?>
<svg xmlns="http://www.w3.org/2000/svg" xmlns:xlink="http://www.w3.org/1999/xlink" width="1000pt" height="1000pt" viewBox="0 0 1000 1000" version="1.1">
<g id="surface1">
<path style=" stroke:none;fill-rule:nonzero;fill:rgb(0%,0%,0%);fill-opacity:1;" d="M 250 83.332031 L 250 333.332031 L 250.417969 333.332031 L 250 333.75 L 416.667969 500 L 250 666.667969 L 250.417969 667.082031 L 250 667.082031 L 250 916.667969 L 750 916.667969 L 750 667.082031 L 749.582031 667.082031 L 750 666.667969 L 583.332031 500 L 750 333.75 L 749.582031 333.332031 L 750 333.332031 L 750 83.332031 Z M 666.667969 687.5 L 666.667969 833.332031 L 333.332031 833.332031 L 333.332031 687.5 L 500 520.832031 Z M 500 479.167969 L 333.332031 312.5 L 333.332031 166.667969 L 666.667969 166.667969 L 666.667969 312.5 Z M 500 479.167969 "/>
</g>
</svg>
