<?xml version="1.0" encoding="UTF-8" standalone="no"?>
<svg
   xmlns:dc="http://purl.org/dc/elements/1.1/"
   xmlns:cc="http://creativecommons.org/ns#"
   xmlns:rdf="http://www.w3.org/1999/02/22-rdf-syntax-ns#"
   xmlns:svg="http://www.w3.org/2000/svg"
   xmlns="http://www.w3.org/2000/svg"
   xmlns:sodipodi="http://sodipodi.sourceforge.net/DTD/sodipodi-0.dtd"
   xmlns:inkscape="http://www.inkscape.org/namespaces/inkscape"
   width="1000pt"
   height="1000pt"
   viewBox="0 0 1000 1000"
   version="1.1"
   id="svg566"
   sodipodi:docname="ic_input_status.svg"
   inkscape:version="0.92.4 (5da689c313, 2019-01-14)">
  <metadata
     id="metadata572">
    <rdf:RDF>
      <cc:Work
         rdf:about="">
        <dc:format>image/svg+xml</dc:format>
        <dc:type
           rdf:resource="http://purl.org/dc/dcmitype/StillImage" />
      </cc:Work>
    </rdf:RDF>
  </metadata>
  <defs
     id="defs570" />
  <sodipodi:namedview
     pagecolor="#ffffff"
     bordercolor="#666666"
     borderopacity="1"
     objecttolerance="10"
     gridtolerance="10"
     guidetolerance="10"
     inkscape:pageopacity="0"
     inkscape:pageshadow="2"
     inkscape:window-width="2560"
     inkscape:window-height="1346"
     id="namedview568"
     showgrid="false"
     inkscape:zoom="0.177"
     inkscape:cx="666.66667"
     inkscape:cy="666.66667"
     inkscape:window-x="-11"
     inkscape:window-y="-11"
     inkscape:window-maximized="1"
     inkscape:current-layer="svg566" />
  <g
     id="surface1"
     transform="matrix(1.1969962,0,0,1.1969962,-98.498116,-98.498116)">
    <path
       style="fill:#000000;fill-opacity:1;fill-rule:nonzero;stroke:none"
       d="m 794.58203,205.41797 -58.75,58.75 c 60,60.41406 97.5,143.75 97.5,235.83203 0,184.16797 -149.16406,333.33203 -333.33203,333.33203 -184.16797,0 -333.33203,-149.16406 -333.33203,-333.33203 0,-170 127.08203,-310 291.66406,-330.41797 V 253.75 C 340,273.75 250,376.25 250,500 c 0,137.91797 112.08203,250 250,250 137.91797,0 250,-112.08203 250,-250 0,-69.16797 -27.91797,-131.66797 -73.33203,-176.66797 l -58.75,58.75 c 30,30.41797 48.75,72.08594 48.75,117.91797 0,92.08203 -74.58594,166.66797 -166.66797,166.66797 -92.08203,0 -166.66797,-74.58594 -166.66797,-166.66797 0,-77.5 53.33594,-142.08203 125,-160.83203 v 89.16406 c -25,14.58594 -41.66406,40.83594 -41.66406,71.66797 0,45.83203 37.5,83.33203 83.33203,83.33203 45.83203,0 83.33203,-37.5 83.33203,-83.33203 0,-30.83203 -16.66406,-57.5 -41.66406,-71.66797 V 83.332031 H 500 C 270,83.332031 83.332031,270 83.332031,500 83.332031,730 270,916.66797 500,916.66797 730,916.66797 916.66797,730 916.66797,500 916.66797,385 870,280.83203 794.58203,205.41797 Z m 0,0"
       id="path563"
       inkscape:connector-curvature="0" />
  </g>
</svg>
