<?xml version="1.0" encoding="UTF-8"?>
<svg xmlns="http://www.w3.org/2000/svg" xmlns:xlink="http://www.w3.org/1999/xlink" width="1000pt" height="1000pt" viewBox="0 0 1000 1000" version="1.1">
<g id="surface1">
<path style="fill:none;stroke-width:2;stroke-linecap:butt;stroke-linejoin:round;stroke:rgb(0%,0%,0%);stroke-opacity:1;stroke-miterlimit:4;" d="M 23 8 C 23 11.866 19.866 15 16 15 C 12.134 15 9 11.866 9 8 C 9 4.134 12.134 1 16 1 C 19.866 1 23 4.134 23 8 Z M 23 8 " transform="matrix(31.25,0,0,31.25,0,0)"/>
<path style="fill:none;stroke-width:2;stroke-linecap:butt;stroke-linejoin:round;stroke:rgb(0%,0%,0%);stroke-opacity:1;stroke-miterlimit:4;" d="M 23.55 18 C 20.356375 14.986 15.676125 14.160125 11.643875 15.899125 C 7.611625 17.638125 5 21.60875 5 26 L 5 31 L 14 31 " transform="matrix(31.25,0,0,31.25,0,0)"/>
<path style="fill:none;stroke-width:2;stroke-linecap:butt;stroke-linejoin:round;stroke:rgb(0%,0%,0%);stroke-opacity:1;stroke-miterlimit:4;" d="M 23.66 21.52 L 18 27.17 L 18 30 L 20.83 30 L 26.48 24.34 Z M 23.66 21.52 " transform="matrix(31.25,0,0,31.25,0,0)"/>
</g>
</svg>
