<?xml version="1.0" encoding="UTF-8"?>
<svg xmlns="http://www.w3.org/2000/svg" xmlns:xlink="http://www.w3.org/1999/xlink" width="1000pt" height="1000pt" viewBox="0 0 1000 1000" version="1.1">
<g id="surface1">
<path style=" stroke:none;fill-rule:nonzero;fill:rgb(0%,0%,0%);fill-opacity:1;" d="M 175.859375 280 L 615.859375 280 L 615.859375 320 L 175.859375 320 Z M 175.859375 280 "/>
<path style=" stroke:none;fill-rule:nonzero;fill:rgb(0%,0%,0%);fill-opacity:1;" d="M 175.859375 400 L 615.859375 400 L 615.859375 440 L 175.859375 440 Z M 175.859375 400 "/>
<path style=" stroke:none;fill-rule:nonzero;fill:rgb(0%,0%,0%);fill-opacity:1;" d="M 175.859375 520 L 515.859375 520 L 515.859375 560 L 175.859375 560 Z M 175.859375 520 "/>
<path style=" stroke:none;fill-rule:nonzero;fill:rgb(0%,0%,0%);fill-opacity:1;" d="M 175.859375 640 L 415.859375 640 L 415.859375 680 L 175.859375 680 Z M 175.859375 640 "/>
<path style=" stroke:none;fill-rule:nonzero;fill:rgb(0%,0%,0%);fill-opacity:1;" d="M 175.859375 760 L 415.859375 760 L 415.859375 800 L 175.859375 800 Z M 175.859375 760 "/>
<path style=" stroke:none;fill-rule:nonzero;fill:rgb(0%,0%,0%);fill-opacity:1;" d="M 775.859375 371.71875 L 775.859375 171.71875 L 624.140625 20 L 15.859375 20 L 15.859375 980 L 775.859375 980 L 775.859375 628.28125 L 984.140625 420 L 855.859375 291.71875 Z M 755.859375 448.28125 L 827.578125 520 L 587.578125 760 L 515.859375 760 L 515.859375 688.28125 Z M 635.859375 88.28125 L 707.578125 160 L 635.859375 160 Z M 735.859375 940 L 55.859375 940 L 55.859375 60 L 595.859375 60 L 595.859375 200 L 735.859375 200 L 735.859375 411.71875 L 475.859375 671.71875 L 475.859375 800 L 604.140625 800 L 735.859375 668.28125 Z M 855.859375 491.71875 L 784.140625 420 L 855.859375 348.28125 L 927.578125 420 Z M 855.859375 491.71875 "/>
</g>
</svg>
