<?xml version="1.0" encoding="UTF-8"?>
<svg xmlns="http://www.w3.org/2000/svg" xmlns:xlink="http://www.w3.org/1999/xlink" width="1000pt" height="1000pt" viewBox="0 0 1000 1000" version="1.1">
<g id="surface1">
<path style=" stroke:none;fill-rule:nonzero;fill:rgb(0%,0%,0%);fill-opacity:1;" d="M 208.332031 125 L 791.667969 125 C 837.691406 125 875 162.308594 875 208.332031 L 875 791.667969 C 875 837.691406 837.691406 875 791.667969 875 L 208.332031 875 C 162.308594 875 125 837.691406 125 791.667969 L 125 208.332031 C 125 162.5 162.5 125 208.332031 125 Z M 791.667969 458.332031 L 791.667969 208.332031 L 208.332031 208.332031 L 208.332031 458.332031 Z M 791.667969 541.667969 L 208.332031 541.667969 L 208.332031 791.667969 L 791.667969 791.667969 Z M 333.332031 375 C 310.320312 375 291.667969 356.34375 291.667969 333.332031 C 291.667969 310.320312 310.320312 291.667969 333.332031 291.667969 C 356.34375 291.667969 375 310.320312 375 333.332031 C 375 356.34375 356.34375 375 333.332031 375 Z M 333.332031 708.332031 C 310.320312 708.332031 291.667969 689.679688 291.667969 666.667969 C 291.667969 643.65625 310.320312 625 333.332031 625 C 356.34375 625 375 643.65625 375 666.667969 C 375 689.679688 356.34375 708.332031 333.332031 708.332031 Z M 333.332031 708.332031 "/>
</g>
</svg>
