<?xml version="1.0" encoding="UTF-8"?>
<svg xmlns="http://www.w3.org/2000/svg" xmlns:xlink="http://www.w3.org/1999/xlink" width="1000pt" height="1000pt" viewBox="0 0 1000 1000" version="1.1">
<g id="surface1">
<path style=" stroke:none;fill-rule:nonzero;fill:rgb(0%,0%,0%);fill-opacity:1;" d="M 781.25 812.5 L 31.25 812.5 C 13.992188 812.5 0 798.507812 0 781.25 L 0 218.75 C 0 201.492188 13.992188 187.5 31.25 187.5 L 781.25 187.5 C 791.703125 187.554688 801.4375 192.832031 807.1875 201.5625 L 994.6875 482.8125 C 1001.695312 493.3125 1001.695312 507 994.6875 517.5 L 807.1875 798.75 C 801.367188 807.363281 791.644531 812.515625 781.25 812.5 Z M 62.5 750 L 764.375 750 L 930.9375 500 L 764.375 250 L 62.5 250 Z M 62.5 750 "/>
<path style=" stroke:none;fill-rule:nonzero;fill:rgb(0%,0%,0%);fill-opacity:1;" d="M 812.5 500 C 812.5 534.519531 784.519531 562.5 750 562.5 C 715.480469 562.5 687.5 534.519531 687.5 500 C 687.5 465.480469 715.480469 437.5 750 437.5 C 784.519531 437.5 812.5 465.480469 812.5 500 Z M 812.5 500 "/>
</g>
</svg>
