<?xml version="1.0" encoding="UTF-8" standalone="no"?>
<svg
   xmlns:dc="http://purl.org/dc/elements/1.1/"
   xmlns:cc="http://creativecommons.org/ns#"
   xmlns:rdf="http://www.w3.org/1999/02/22-rdf-syntax-ns#"
   xmlns:svg="http://www.w3.org/2000/svg"
   xmlns="http://www.w3.org/2000/svg"
   xmlns:sodipodi="http://sodipodi.sourceforge.net/DTD/sodipodi-0.dtd"
   xmlns:inkscape="http://www.inkscape.org/namespaces/inkscape"
   width="1000pt"
   height="1000pt"
   viewBox="0 0 1000 1000"
   version="1.1"
   id="svg964"
   sodipodi:docname="ic_media_videogame.svg"
   inkscape:version="0.92.4 (5da689c313, 2019-01-14)">
  <metadata
     id="metadata970">
    <rdf:RDF>
      <cc:Work
         rdf:about="">
        <dc:format>image/svg+xml</dc:format>
        <dc:type
           rdf:resource="http://purl.org/dc/dcmitype/StillImage" />
      </cc:Work>
    </rdf:RDF>
  </metadata>
  <defs
     id="defs968" />
  <sodipodi:namedview
     pagecolor="#ffffff"
     bordercolor="#666666"
     borderopacity="1"
     objecttolerance="10"
     gridtolerance="10"
     guidetolerance="10"
     inkscape:pageopacity="0"
     inkscape:pageshadow="2"
     inkscape:window-width="2560"
     inkscape:window-height="1346"
     id="namedview966"
     showgrid="false"
     inkscape:zoom="0.177"
     inkscape:cx="666.66667"
     inkscape:cy="666.66667"
     inkscape:window-x="-11"
     inkscape:window-y="-11"
     inkscape:window-maximized="1"
     inkscape:current-layer="svg964" />
  <g
     id="surface1"
     transform="matrix(1.0881849,0,0,1.0881849,-44.092465,-44.092465)">
    <path
       style="fill:#000000;fill-opacity:1;fill-rule:nonzero;stroke:none"
       d="M 875,250 H 125 c -45.832031,0 -83.332031,37.5 -83.332031,83.33203 V 666.66797 C 41.667969,712.5 79.167969,750 125,750 h 750 c 45.83203,0 83.33203,-37.5 83.33203,-83.33203 V 333.33203 C 958.33203,287.5 920.83203,250 875,250 Z M 458.33203,541.66797 h -125 v 125 H 250 v -125 H 125 v -83.33594 h 125 v -125 h 83.33203 v 125 h 125 z M 645.83203,625 c -34.58203,0 -62.5,-27.91797 -62.5,-62.5 0,-34.58203 27.91797,-62.5 62.5,-62.5 34.58594,0 62.5,27.91797 62.5,62.5 0,34.58203 -27.91406,62.5 -62.5,62.5 z M 812.5,500 c -34.58203,0 -62.5,-27.91797 -62.5,-62.5 0,-34.58203 27.91797,-62.5 62.5,-62.5 34.58203,0 62.5,27.91797 62.5,62.5 0,34.58203 -27.91797,62.5 -62.5,62.5 z m 0,0"
       id="path961"
       inkscape:connector-curvature="0" />
  </g>
</svg>
