<?xml version="1.0" encoding="UTF-8"?>
<svg xmlns="http://www.w3.org/2000/svg" xmlns:xlink="http://www.w3.org/1999/xlink" width="1000pt" height="1000pt" viewBox="0 0 1000 1000" version="1.1">
<g id="surface1">
<path style=" stroke:none;fill-rule:nonzero;fill:rgb(0%,0%,0%);fill-opacity:1;" d="M 875 250 L 125 250 C 79.167969 250 41.667969 287.5 41.667969 333.332031 L 41.667969 666.667969 C 41.667969 712.5 79.167969 750 125 750 L 875 750 C 920.832031 750 958.332031 712.5 958.332031 666.667969 L 958.332031 333.332031 C 958.332031 287.5 920.832031 250 875 250 Z M 458.332031 541.667969 L 333.332031 541.667969 L 333.332031 666.667969 L 250 666.667969 L 250 541.667969 L 125 541.667969 L 125 458.332031 L 250 458.332031 L 250 333.332031 L 333.332031 333.332031 L 333.332031 458.332031 L 458.332031 458.332031 Z M 645.832031 625 C 611.25 625 583.332031 597.082031 583.332031 562.5 C 583.332031 527.917969 611.25 500 645.832031 500 C 680.417969 500 708.332031 527.917969 708.332031 562.5 C 708.332031 597.082031 680.417969 625 645.832031 625 Z M 812.5 500 C 777.917969 500 750 472.082031 750 437.5 C 750 402.917969 777.917969 375 812.5 375 C 847.082031 375 875 402.917969 875 437.5 C 875 472.082031 847.082031 500 812.5 500 Z M 812.5 500 "/>
</g>
</svg>
