<?xml version="1.0" encoding="UTF-8" standalone="no"?>
<svg
   xmlns:dc="http://purl.org/dc/elements/1.1/"
   xmlns:cc="http://creativecommons.org/ns#"
   xmlns:rdf="http://www.w3.org/1999/02/22-rdf-syntax-ns#"
   xmlns:svg="http://www.w3.org/2000/svg"
   xmlns="http://www.w3.org/2000/svg"
   xmlns:sodipodi="http://sodipodi.sourceforge.net/DTD/sodipodi-0.dtd"
   xmlns:inkscape="http://www.inkscape.org/namespaces/inkscape"
   width="1000pt"
   height="1000pt"
   viewBox="0 0 1000 1000"
   version="1.1"
   id="svg1104"
   sodipodi:docname="ic_none.svg"
   inkscape:version="0.92.4 (5da689c313, 2019-01-14)">
  <metadata
     id="metadata1110">
    <rdf:RDF>
      <cc:Work
         rdf:about="">
        <dc:format>image/svg+xml</dc:format>
        <dc:type
           rdf:resource="http://purl.org/dc/dcmitype/StillImage" />
      </cc:Work>
    </rdf:RDF>
  </metadata>
  <defs
     id="defs1108" />
  <sodipodi:namedview
     pagecolor="#ffffff"
     bordercolor="#666666"
     borderopacity="1"
     objecttolerance="10"
     gridtolerance="10"
     guidetolerance="10"
     inkscape:pageopacity="0"
     inkscape:pageshadow="2"
     inkscape:window-width="2560"
     inkscape:window-height="1346"
     id="namedview1106"
     showgrid="false"
     inkscape:zoom="0.177"
     inkscape:cx="666.66667"
     inkscape:cy="666.66667"
     inkscape:window-x="-11"
     inkscape:window-y="-11"
     inkscape:window-maximized="1"
     inkscape:current-layer="svg1104" />
  <g
     id="surface1"
     transform="matrix(1.2276923,0,0,1.2276923,-113.84617,-113.84617)">
    <path
       style="fill:#000000;fill-opacity:1;fill-rule:nonzero;stroke:none"
       d="M 500,93.75 C 275.58594,93.75 93.75,275.58594 93.75,500 93.75,724.41406 275.58594,906.25 500,906.25 724.41406,906.25 906.25,724.41406 906.25,500 906.25,275.58594 724.41406,93.75 500,93.75 Z m 0,778.71094 C 294.72656,872.46094 127.53906,705.46875 127.53906,500 127.53906,294.72656 294.53125,127.53906 500,127.53906 c 205.27344,0 372.46094,166.99219 372.46094,372.46094 0,205.27344 -167.1875,372.46094 -372.46094,372.46094 z m 0,0"
       id="path1101"
       inkscape:connector-curvature="0" />
  </g>
</svg>
