<?xml version="1.0" encoding="UTF-8"?>
<svg xmlns="http://www.w3.org/2000/svg" xmlns:xlink="http://www.w3.org/1999/xlink" width="1000pt" height="1000pt" viewBox="0 0 1000 1000" version="1.1">
<g id="surface1">
<path style=" stroke:none;fill-rule:nonzero;fill:rgb(0%,0%,0%);fill-opacity:1;" d="M 500 310.351562 C 395.117188 310.351562 310.15625 395.3125 310.15625 500.195312 C 310.15625 605.078125 395.117188 689.84375 500 689.84375 C 604.882812 689.84375 689.84375 604.882812 689.84375 500.195312 C 689.84375 395.3125 604.882812 310.351562 500 310.351562 Z M 500 584.960938 C 453.125 584.960938 415.039062 546.875 415.039062 500 C 415.039062 453.125 453.125 415.039062 500 415.039062 C 546.875 415.039062 584.960938 453.125 584.960938 500 C 584.960938 546.875 546.875 584.960938 500 584.960938 Z M 500 584.960938 "/>
<path style=" stroke:none;fill-rule:nonzero;fill:rgb(0%,0%,0%);fill-opacity:1;" d="M 500 62.5 C 258.398438 62.5 62.5 258.398438 62.5 500 C 62.5 741.601562 258.398438 937.5 500 937.5 C 741.601562 937.5 937.5 741.601562 937.5 500 C 937.5 258.398438 741.601562 62.5 500 62.5 Z M 500 739.84375 C 367.578125 739.84375 260.15625 632.421875 260.15625 500 C 260.15625 367.578125 367.578125 260.15625 500 260.15625 C 632.421875 260.15625 739.84375 367.578125 739.84375 500 C 739.84375 632.421875 632.421875 739.84375 500 739.84375 Z M 500 739.84375 "/>
</g>
</svg>
