<?xml version="1.0" encoding="UTF-8" standalone="no"?>
<svg
   xmlns:dc="http://purl.org/dc/elements/1.1/"
   xmlns:cc="http://creativecommons.org/ns#"
   xmlns:rdf="http://www.w3.org/1999/02/22-rdf-syntax-ns#"
   xmlns:svg="http://www.w3.org/2000/svg"
   xmlns="http://www.w3.org/2000/svg"
   xmlns:sodipodi="http://sodipodi.sourceforge.net/DTD/sodipodi-0.dtd"
   xmlns:inkscape="http://www.inkscape.org/namespaces/inkscape"
   width="1000pt"
   height="1000pt"
   viewBox="0 0 1000 1000"
   version="1.1"
   id="svg1126"
   sodipodi:docname="ic_platform_book.svg"
   inkscape:version="0.92.4 (5da689c313, 2019-01-14)">
  <metadata
     id="metadata1132">
    <rdf:RDF>
      <cc:Work
         rdf:about="">
        <dc:format>image/svg+xml</dc:format>
        <dc:type
           rdf:resource="http://purl.org/dc/dcmitype/StillImage" />
      </cc:Work>
    </rdf:RDF>
  </metadata>
  <defs
     id="defs1130" />
  <sodipodi:namedview
     pagecolor="#ffffff"
     bordercolor="#666666"
     borderopacity="1"
     objecttolerance="10"
     gridtolerance="10"
     guidetolerance="10"
     inkscape:pageopacity="0"
     inkscape:pageshadow="2"
     inkscape:window-width="2560"
     inkscape:window-height="1346"
     id="namedview1128"
     showgrid="false"
     inkscape:zoom="0.177"
     inkscape:cx="666.66667"
     inkscape:cy="666.66667"
     inkscape:window-x="-11"
     inkscape:window-y="-11"
     inkscape:window-maximized="1"
     inkscape:current-layer="svg1126" />
  <g
     id="surface1"
     transform="matrix(1.0733737,0,0,1.0733737,-36.770967,-36.686864)">
    <path
       style="fill:#000000;fill-opacity:1;fill-rule:nonzero;stroke:none"
       d="m 950.33594,266.74219 c 14.8789,21.20312 18.22656,45.19922 10.04297,71.98437 L 806.91797,844.30859 c -7.06641,23.8086 -21.29688,43.80469 -42.6875,59.98828 -21.39063,16.1836 -44.17969,24.27344 -68.35938,24.27344 h -515.0664 c -28.64844,0 -56.26953,-9.94922 -82.871096,-29.85547 -26.597656,-19.90234 -45.105469,-44.36328 -55.523438,-73.3789 -8.929687,-24.92578 -9.300781,-48.55078 -1.117187,-70.8711 0,-1.48828 0.558593,-6.51172 1.675781,-15.0664 1.117188,-8.5586 1.859375,-15.44141 2.230469,-20.64844 0.375,-2.97656 -0.183594,-6.97656 -1.671875,-11.99609 -1.488282,-5.02344 -2.046875,-8.65235 -1.675782,-10.88282 0.746094,-4.09375 2.234376,-8 4.464844,-11.71875 2.234375,-3.72265 5.300782,-8.09375 9.207032,-13.11328 3.90625,-5.02344 6.976562,-9.39453 9.207031,-13.11328 8.558593,-14.13672 16.929687,-31.16016 25.113281,-51.0625 8.183594,-19.90234 13.76563,-36.92187 16.74219,-51.05859 1.11328,-3.72266 1.20703,-9.30078 0.27734,-16.74219 -0.92969,-7.44141 -1.02344,-12.64844 -0.27734,-15.625 1.11328,-4.09375 4.27734,-9.30078 9.48437,-15.625 5.21094,-6.32422 8.3711,-10.60156 9.48828,-12.83594 7.8125,-13.39062 15.625,-30.5039 23.4375,-51.33984 7.8125,-20.83203 12.46094,-37.57422 13.94922,-50.22266 0.375,-3.34765 -0.0937,-9.30078 -1.39453,-17.85547 -1.30078,-8.55859 -1.20703,-13.76562 0.28125,-15.625 1.48828,-4.83593 5.57813,-10.51172 12.27344,-17.01953 6.69922,-6.51172 10.78906,-10.69531 12.27734,-12.55859 7.07031,-9.67188 14.97656,-25.39063 23.71875,-47.15235 8.74219,-21.76171 13.85547,-39.71484 15.34375,-53.85156 0.375,-2.97656 -0.18359,-7.71875 -1.67187,-14.23047 -1.48828,-6.50781 -1.85938,-11.4375 -1.11719,-14.78515 0.74219,-2.97657 2.41797,-6.32422 5.02344,-10.04688 2.60156,-3.71875 5.95312,-7.99609 10.04297,-12.83203 4.09375,-4.83984 7.2539,-8.74609 9.48828,-11.71875 2.97656,-4.46484 6.04297,-10.14062 9.20703,-17.02344 3.16015,-6.8789 5.95312,-13.39062 8.37109,-19.53125 2.41797,-6.13671 5.39453,-12.83203 8.92578,-20.08593 3.53516,-7.25782 7.16407,-13.207035 10.88282,-17.859379 3.72265,-4.648437 8.64843,-9.019531 14.78906,-13.113281 6.13672,-4.09375 12.83594,-6.230469 20.08984,-6.417969 7.25391,-0.183593 16.08985,0.835938 26.50391,3.070313 l -0.55469,1.671875 c 14.13672,-3.347657 23.62109,-5.019531 28.45703,-5.019531 h 424.66797 c 27.52734,0 48.73438,10.414062 63.61328,31.250002 14.88281,20.83203 18.23047,45.01562 10.04688,72.54297 L 719.30859,680.80469 c -13.39453,44.26953 -26.6914,72.82422 -39.89843,85.65625 -13.20704,12.83593 -37.10938,19.2539 -71.71094,19.2539 H 122.76953 c -10.04687,0 -17.11328,2.78907 -21.20703,8.3711 -4.09375,5.95312 -4.277344,13.94922 -0.55859,23.99609 8.92968,26.03906 35.71484,39.0625 80.35937,39.0625 h 515.06641 c 10.78906,0 21.20312,-2.88672 31.25,-8.65234 10.04297,-5.76563 16.55468,-13.48438 19.53125,-23.15625 L 914.62109,274.55469 c 2.60547,-8.1875 3.53516,-18.78907 2.78907,-31.8086 14.13671,5.57813 25.11328,13.57813 32.92578,23.9961 z m -593.75,1.11328 c -1.48828,4.83984 -1.11719,9.02344 1.11328,12.55859 2.23437,3.53125 5.95312,5.30078 11.16406,5.30078 h 339.28516 c 4.83593,0 9.57812,-1.76953 14.23047,-5.30078 4.64843,-3.53515 7.71875,-7.71875 9.20703,-12.55859 l 11.71875,-35.71094 c 1.48828,-4.83984 1.11328,-9.02344 -1.11719,-12.55859 -2.23047,-3.53125 -5.95313,-5.30078 -11.16016,-5.30078 H 391.74219 c -4.83594,0 -9.58203,1.76953 -14.23047,5.30078 -4.65235,3.53515 -7.71875,7.71875 -9.20703,12.55859 z m -46.31641,142.85937 c -1.48828,4.83594 -1.11719,9.01953 1.11328,12.55469 2.23438,3.53516 5.95313,5.30078 11.16016,5.30078 h 339.28906 c 4.83594,0 9.57813,-1.76562 14.22656,-5.30078 4.65235,-3.53516 7.72266,-7.71875 9.21094,-12.55469 L 696.98828,375 c 1.48828,-4.83594 1.11328,-9.02344 -1.11719,-12.55469 -2.23437,-3.53515 -5.95312,-5.30078 -11.16015,-5.30078 H 345.42578 c -4.83984,0 -9.58203,1.76563 -14.23047,5.30078 -4.65234,3.53125 -7.71875,7.71875 -9.20703,12.55469 z m 0,0"
       id="path1123"
       inkscape:connector-curvature="0" />
  </g>
</svg>
