<?xml version="1.0" encoding="UTF-8" standalone="no"?>
<svg
   xmlns:dc="http://purl.org/dc/elements/1.1/"
   xmlns:cc="http://creativecommons.org/ns#"
   xmlns:rdf="http://www.w3.org/1999/02/22-rdf-syntax-ns#"
   xmlns:svg="http://www.w3.org/2000/svg"
   xmlns="http://www.w3.org/2000/svg"
   xmlns:sodipodi="http://sodipodi.sourceforge.net/DTD/sodipodi-0.dtd"
   xmlns:inkscape="http://www.inkscape.org/namespaces/inkscape"
   inkscape:version="1.0 (4035a4f, 2020-05-01)"
   sodipodi:docname="2.svg"
   id="svg133"
   xml:space="preserve"
   width="1333.3334"
   viewBox="0 0 1333.3334 1333.3334"
   version="1.1"
   height="1333.3334"><metadata
     id="metadata139"><rdf:RDF><cc:Work
         rdf:about=""><dc:format>image/svg+xml</dc:format><dc:type
           rdf:resource="http://purl.org/dc/dcmitype/StillImage" /><dc:title></dc:title></cc:Work></rdf:RDF></metadata><defs
     id="defs137" /><sodipodi:namedview
     fit-margin-bottom="0"
     fit-margin-right="0"
     fit-margin-left="0"
     fit-margin-top="0"
     inkscape:current-layer="svg133"
     inkscape:window-maximized="1"
     inkscape:window-y="23"
     inkscape:window-x="0"
     inkscape:cy="1280.3692"
     inkscape:cx="2042.1879"
     inkscape:zoom="0.25377123"
     showgrid="false"
     id="namedview135"
     inkscape:window-height="1004"
     inkscape:window-width="1792"
     inkscape:pageshadow="2"
     inkscape:pageopacity="0"
     guidetolerance="10"
     gridtolerance="10"
     objecttolerance="10"
     borderopacity="1"
     bordercolor="#666666"
     pagecolor="#ffffff" /><g
     transform="matrix(2.8471577,0,0,2.8479037,-62.207284,-62.395428)"
     id="comp_x5F_232-nintendo-switch"><g
       id="g129"><path
         id="path127"
         d="m 124.432,27.526 c -45.786,8.212 -82.641,42.09 -94.241,86.644 -4.208,16.118 -4.517,25.562 -4.003,150.398 0.204,114.566 0.308,117.235 2.258,126.168 10.574,47.734 44.452,81.718 92.702,92.906 6.262,1.437 14.269,1.745 65.804,1.951 53.28,0.411 58.824,0.307 60.261,-1.131 1.436,-1.437 1.54,-19.813 1.54,-228.109 0,-154.503 -0.307,-227.185 -0.923,-228.521 -0.924,-1.744 -2.566,-1.847 -58.413,-1.744 -45.376,0.104 -59.029,0.412 -64.985,1.438 z m 86.132,228.52 v 192.896 l -38.806,-0.512 c -35.725,-0.411 -39.523,-0.614 -46.709,-2.359 -30.694,-7.907 -53.383,-31.52 -59.851,-62.316 -2.053,-9.649 -2.053,-246.486 -0.103,-255.931 5.749,-26.795 24.331,-48.968 49.276,-58.926 12.524,-5.031 18.376,-5.646 59.132,-5.749 l 36.854,-0.103 v 193 z M 132.645,121.357 c -5.954,1.129 -15.09,5.75 -20.018,9.958 -9.958,8.623 -14.988,20.942 -14.167,35.417 0.411,7.495 0.821,9.548 3.901,15.604 4.517,9.239 11.189,16.015 20.43,20.532 6.365,3.183 8.007,3.491 16.322,3.799 7.493,0.306 10.163,0 15.194,-1.747 20.634,-6.981 33.159,-27 29.565,-47.633 -4.003,-24.33 -27.307,-40.754 -51.227,-35.93 z M 295.052,26.602 c -0.409,0.308 -0.613,103.48 -0.613,229.444 0,207.682 0.101,228.727 1.538,229.342 2.566,0.924 76.481,0.617 85.619,-0.411 38.701,-4.414 72.888,-27.923 91.366,-62.827 2.361,-4.517 5.543,-12.011 7.186,-16.631 C 486.103,387.655 486,392.378 486,255.533 486,146.304 485.797,129.981 484.46,123.104 475.017,73.518 437.136,36.047 387.448,27.527 380.774,26.398 370.509,26.09 337.349,26.09 c -22.996,-0.104 -41.987,0.204 -42.297,0.512 z m 101.737,207.475 c 14.886,3.902 26.999,15.193 32.03,29.668 3.181,8.933 3.08,22.071 -0.105,30.287 -5.849,15.089 -17.245,25.663 -31.925,29.564 -23.817,6.161 -49.175,-8.211 -56.054,-31.823 -2.053,-7.188 -1.949,-19.405 0.41,-26.899 7.086,-23.303 31.827,-37.059 55.644,-30.797 z" /></g></g><g
     transform="matrix(2.8471577,0,0,2.8479037,-74.028972,-74.217105)"
     id="Layer_1" /></svg>
