<?xml version="1.0" encoding="UTF-8"?>
<svg xmlns="http://www.w3.org/2000/svg" xmlns:xlink="http://www.w3.org/1999/xlink" width="1000pt" height="1000pt" viewBox="0 0 1000 1000" version="1.1">
<g id="surface1">
<path style=" stroke:none;fill-rule:nonzero;fill:rgb(0%,0%,0%);fill-opacity:1;" d="M 96.871094 12.800781 C 57.269531 23.300781 22.808594 58.148438 12.710938 97.949219 C 10.140625 108.640625 9.738281 154.78125 10.140625 504.890625 L 10.730469 899.75 L 15.28125 911.628906 C 29.140625 948.460938 65.179688 980.339844 100.429688 987.671875 C 115.28125 990.640625 884.398438 990.640625 899.261719 987.671875 C 939.261719 979.351562 979.460938 939.148438 987.78125 899.148438 C 990.75 884.300781 990.75 115.179688 987.78125 100.320312 C 980.449219 65.070312 948.570312 29.03125 911.738281 15.171875 L 899.859375 10.621094 L 503.820312 10.21875 C 161.21875 9.839844 106.371094 10.230469 96.871094 12.800781 Z M 886.78125 43.5 C 910.339844 48.851562 937.871094 70.429688 948.171875 91.421875 C 958.660156 113.199219 958.269531 92.609375 958.269531 499.941406 C 958.269531 914.601562 959.058594 885.488281 946.980469 909.449219 C 940.449219 922.320312 922.230469 940.539062 909.160156 947.070312 C 885.988281 958.75 910.351562 958.160156 499.851562 958.160156 C 89.351562 958.160156 113.710938 958.75 90.539062 947.070312 C 77.269531 940.339844 59.25 922.320312 52.519531 909.050781 C 40.839844 885.878906 41.429688 910.238281 41.429688 499.738281 C 41.429688 89.441406 40.839844 113.601562 52.519531 90.429688 C 63.011719 69.640625 86.78125 50.828125 110.539062 44.089844 C 122.210938 40.921875 872.921875 40.128906 886.78125 43.5 Z M 886.78125 43.5 "/>
<path style=" stroke:none;fill-rule:nonzero;fill:rgb(0%,0%,0%);fill-opacity:1;" d="M 342.421875 459.148438 L 342.421875 722.519531 L 405.78125 722.519531 L 405.78125 573.011719 L 428.359375 550.441406 L 451.128906 527.859375 L 474.890625 564.300781 C 487.960938 584.300781 516.28125 627.859375 537.859375 661.128906 L 577.269531 721.53125 L 617.269531 722.121094 L 657.46875 722.519531 L 578.058594 603.898438 C 534.5 538.558594 498.851562 484.300781 498.851562 483.308594 C 498.851562 482.320312 530.730469 450.640625 569.738281 412.808594 C 608.550781 374.988281 640.828125 343.101562 641.03125 342.121094 C 641.429688 341.128906 624.988281 340.339844 601.230469 340.339844 L 560.640625 340.339844 L 484.398438 417.558594 C 442.621094 459.941406 407.761719 494.789062 406.96875 494.789062 C 406.371094 494.789062 405.78125 427.460938 405.78125 345.28125 L 405.78125 195.769531 L 342.421875 195.769531 Z M 342.421875 459.148438 "/>
</g>
</svg>
