<?xml version="1.0" encoding="UTF-8"?>
<svg xmlns="http://www.w3.org/2000/svg" xmlns:xlink="http://www.w3.org/1999/xlink" width="1000pt" height="1000pt" viewBox="0 0 1000 1000" version="1.1">
<g id="surface1">
<path style=" stroke:none;fill-rule:nonzero;fill:rgb(0%,0%,0%);fill-opacity:1;" d="M 300.898438 810.101562 C 326.898438 810.101562 352.398438 797.5 367.800781 774.300781 C 392.398438 737.398438 382.398438 687.398438 345.5 662.800781 L 282.300781 620.601562 C 293.101562 617.699219 304.5 616.101562 316.300781 616.101562 C 387.5 616.101562 445.199219 673.800781 445.199219 745 C 445.199219 816.199219 387.5 873.898438 316.300781 873.898438 C 247 873.898438 190.5 819.199219 187.5 750.699219 L 256.398438 796.601562 C 270 805.699219 285.5 810.101562 300.898438 810.101562 Z M 826.699219 10 C 916.5 10 990 83.5 990 173.398438 L 990 826.699219 C 990 916.601562 916.5 990.101562 826.699219 990.101562 L 173.398438 990.101562 C 83.5 990 10 916.601562 10 826.601562 L 10 632.398438 L 126.101562 709.800781 C 115 770.300781 132.699219 835 179.5 881.800781 C 255 957.300781 377.5 957.300781 453 881.800781 C 499.398438 835.398438 517.300781 771.300781 506.699219 711.300781 L 745 497.800781 C 789.300781 491.398438 831.898438 471.199219 866 437.199219 C 949.699219 353.5 949.699219 217.699219 866 134 C 782.300781 50.300781 646.5 50.300781 562.800781 134 C 528.699219 168.101562 508.601562 210.699219 502.199219 255 L 306.300781 551.898438 C 275.800781 553.5 245.601562 562.199219 218.5 578.101562 L 10 439.101562 L 10 173.398438 C 10 83.5 83.5 10 173.398438 10 Z M 867.5 285.601562 C 867.5 201 798.898438 132.5 714.398438 132.5 C 629.898438 132.5 561.300781 201.101562 561.300781 285.601562 C 561.300781 370.101562 629.898438 438.699219 714.398438 438.699219 C 798.898438 438.699219 867.5 370.199219 867.5 285.601562 Z M 622.5 285.601562 C 622.5 234.898438 663.601562 193.699219 714.398438 193.699219 C 765.199219 193.699219 806.300781 234.800781 806.300781 285.601562 C 806.300781 336.398438 765.199219 377.5 714.398438 377.5 C 663.601562 377.5 622.5 336.398438 622.5 285.601562 Z M 622.5 285.601562 "/>
</g>
</svg>
