<?xml version="1.0" encoding="UTF-8"?>
<svg xmlns="http://www.w3.org/2000/svg" xmlns:xlink="http://www.w3.org/1999/xlink" width="1000pt" height="1000pt" viewBox="0 0 1000 1000" version="1.1">
<g id="surface1">
<path style=" stroke:none;fill-rule:nonzero;fill:rgb(94.509804%,35.294118%,13.72549%);fill-opacity:1;" d="M 514.957031 22.679688 C 516.863281 27.753906 513.570312 32.390625 510.871094 36.3125 C 491.773438 64.339844 479.097656 96.90625 473.109375 130.597656 C 472.171875 136.191406 471.132812 137.027344 472.261719 140.746094 C 474.046875 141.421875 473.148438 141.132812 474.972656 141.703125 C 512.039062 138.335938 549.644531 139.035156 586.136719 147.105469 C 652.535156 160.941406 714.597656 195.726562 762.292969 245.453125 C 809.851562 294.667969 843.234375 358.441406 856.738281 426.667969 C 871.710938 500.542969 863.339844 579.179688 833.390625 647.984375 C 769.886719 788.484375 662.828125 907.324219 531.832031 982.65625 C 527.605469 984.6875 521.519531 984.769531 518.625 980.417969 C 515.210938 975.859375 516.621094 969.371094 519.992188 965.226562 C 537.664062 939.703125 550 910.363281 556.703125 879.769531 C 557.992188 873.425781 559.757812 866.996094 559.222656 860.472656 C 557.0625 857.554688 553.492188 858.4375 550.457031 858.542969 C 486.871094 865.132812 421.441406 853.367188 363.984375 824.292969 C 302.445312 793.597656 250.226562 743.414062 215.699219 682.414062 C 183.707031 626.300781 166.890625 560.949219 168.058594 495.757812 C 168.273438 435.925781 184.042969 376.589844 211.808594 324.214844 C 276.445312 195.746094 377.929688 87.335938 500.460938 17.300781 C 505.597656 14.347656 513.191406 16.542969 514.957031 22.679688 Z M 497.871094 361.171875 C 459.9375 366.4375 424.949219 389.46875 403.699219 422.289062 C 389.320312 444.828125 380.609375 471.605469 380.785156 498.710938 C 379.710938 535.027344 393.714844 571.410156 417.984375 597.566406 C 439.1875 621.171875 468.648438 636.558594 499.542969 640.667969 C 530.992188 644.96875 563.832031 637.359375 590.46875 619.488281 C 617.539062 601.71875 638.167969 573.667969 647.398438 541.894531 C 664.726562 486.742188 643.960938 422.128906 598.765625 388.050781 C 570.378906 365.714844 533.160156 355.804688 497.871094 361.171875 Z M 497.871094 361.171875 "/>
</g>
</svg>
