<?xml version="1.0" encoding="UTF-8"?>
<svg xmlns="http://www.w3.org/2000/svg" xmlns:xlink="http://www.w3.org/1999/xlink" width="1000pt" height="1000pt" viewBox="0 0 1000 1000" version="1.1">
<g id="surface1">
<path style=" stroke:none;fill-rule:nonzero;fill:rgb(0%,0%,0%);fill-opacity:1;" d="M 500 40 C 246.339844 40 40 246.359375 40 500 C 40 753.640625 246.339844 960 500 960 C 753.660156 960 960 753.640625 960 500 C 960 246.359375 753.660156 40 500 40 Z M 232 260 L 348 260 C 365.671875 260 380 274.328125 380 292 L 380 488 C 380 505.679688 365.679688 520 348 520 L 200 520 L 200 480 L 328 480 C 334.628906 480 340 474.628906 340 468 L 340 312 C 340 305.371094 334.628906 300 328 300 L 252 300 C 245.371094 300 240 305.371094 240 312 L 240 388 C 240 394.628906 245.371094 400 252 400 L 310 400 L 310 440 L 232 440 C 214.328125 440 200 425.671875 200 408 L 200 292 C 200 274.320312 214.320312 260 232 260 Z M 442 260 L 558 260 C 575.640625 260 590 274.359375 590 292 L 590 408 C 590 425.640625 575.640625 440 558 440 L 442 440 C 424.359375 440 410 425.640625 410 408 L 410 292 C 410 274.359375 424.359375 260 442 260 Z M 652 260 L 768 260 C 785.671875 260 800 274.328125 800 292 L 800 488 C 800 505.679688 785.679688 520 768 520 L 620 520 L 620 480 L 748 480 C 754.628906 480 760 474.628906 760 468 L 760 312 C 760 305.371094 754.628906 300 748 300 L 672 300 C 665.371094 300 660 305.371094 660 312 L 660 388 C 660 394.628906 665.371094 400 672 400 L 730 400 L 730 440 L 652 440 C 634.328125 440 620 425.671875 620 408 L 620 292 C 620 274.320312 634.320312 260 652 260 Z M 462 300 C 455.371094 300 450 305.371094 450 312 L 450 388 C 450 394.628906 455.371094 400 462 400 L 538 400 C 544.628906 400 550 394.628906 550 388 L 550 312 C 550 305.371094 544.628906 300 538 300 Z M 232 560 L 350 560 L 350 600 L 252 600 C 245.371094 600 240 605.371094 240 612 L 240 688 C 240 694.628906 245.371094 700 252 700 L 350 700 L 350 740 L 232 740 C 214.328125 740 200 725.671875 200 708 L 200 592 C 200 574.328125 214.328125 560 232 560 Z M 412 560 L 528 560 C 545.640625 560 560 574.359375 560 592 L 560 708 C 560 725.640625 545.640625 740 528 740 L 412 740 C 394.359375 740 380 725.640625 380 708 L 380 592 C 380 574.359375 394.359375 560 412 560 Z M 622 560 L 800 560 L 800 740 L 760 740 L 760 600 L 727 600 C 720.371094 600 715 605.371094 715 612 L 715 740 L 675 740 L 675 600 L 642 600 C 635.371094 600 630 605.371094 630 612 L 630 740 L 590 740 L 590 592 C 590 574.328125 604.328125 560 622 560 Z M 432 600 C 425.371094 600 420 605.371094 420 612 L 420 688 C 420 694.628906 425.371094 700 432 700 L 508 700 C 514.628906 700 520 694.628906 520 688 L 520 612 C 520 605.371094 514.628906 600 508 600 Z M 432 600 "/>
</g>
</svg>
