<?xml version="1.0" encoding="UTF-8" standalone="no"?>
<svg
   xmlns:dc="http://purl.org/dc/elements/1.1/"
   xmlns:cc="http://creativecommons.org/ns#"
   xmlns:rdf="http://www.w3.org/1999/02/22-rdf-syntax-ns#"
   xmlns:svg="http://www.w3.org/2000/svg"
   xmlns="http://www.w3.org/2000/svg"
   xmlns:sodipodi="http://sodipodi.sourceforge.net/DTD/sodipodi-0.dtd"
   xmlns:inkscape="http://www.inkscape.org/namespaces/inkscape"
   enable-background="new 0 0 56.693 56.693"
   height="1000"
   id="Layer_1"
   version="1.1"
   viewBox="0 0 999.99999 999.99999"
   width="1000"
   xml:space="preserve"
   sodipodi:docname="ic_platform_apple.svg"
   inkscape:version="0.92.4 (5da689c313, 2019-01-14)"><metadata
     id="metadata4542"><rdf:RDF><cc:Work
         rdf:about=""><dc:format>image/svg+xml</dc:format><dc:type
           rdf:resource="http://purl.org/dc/dcmitype/StillImage" /><dc:title></dc:title></cc:Work></rdf:RDF></metadata><defs
     id="defs4540" /><sodipodi:namedview
     pagecolor="#ffffff"
     bordercolor="#666666"
     borderopacity="1"
     objecttolerance="10"
     gridtolerance="10"
     guidetolerance="10"
     inkscape:pageopacity="0"
     inkscape:pageshadow="2"
     inkscape:window-width="1920"
     inkscape:window-height="1017"
     id="namedview4538"
     showgrid="false"
     inkscape:zoom="0.46742984"
     inkscape:cx="974.93359"
     inkscape:cy="499.4235"
     inkscape:window-x="-8"
     inkscape:window-y="-8"
     inkscape:window-maximized="1"
     inkscape:current-layer="Layer_1" /><g
     id="g4535"
     transform="matrix(20.325914,0,0,20.224285,-76.171498,-85.961034)"><path
       d="m 41.777,30.517 c -0.062,-6.232 5.082,-9.221 5.312,-9.372 -2.891,-4.227 -7.395,-4.807 -8.998,-4.873 -3.83,-0.389 -7.477,2.256 -9.42,2.256 -1.939,0 -4.941,-2.199 -8.117,-2.143 -4.178,0.062 -8.029,2.43 -10.179,6.17 -4.339,7.527 -1.11,18.682 3.118,24.791 2.067,2.986 4.532,6.346 7.766,6.223 3.117,-0.123 4.293,-2.016 8.061,-2.016 3.768,0 4.826,2.016 8.123,1.953 3.352,-0.061 5.477,-3.043 7.527,-6.041 2.373,-3.469 3.35,-6.828 3.408,-6.998 -0.073,-0.034 -6.534,-2.509 -6.601,-9.95 z"
       id="path4531"
       inkscape:connector-curvature="0" /><path
       d="m 35.582,12.229 c 1.715,-2.082 2.877,-4.975 2.561,-7.855 -2.475,0.1 -5.471,1.645 -7.248,3.725 -1.592,1.846 -2.984,4.785 -2.611,7.613 2.761,0.214 5.577,-1.405 7.298,-3.483 z"
       id="path4533"
       inkscape:connector-curvature="0" /></g></svg>