<?xml version="1.0" encoding="UTF-8"?>
<svg xmlns="http://www.w3.org/2000/svg" xmlns:xlink="http://www.w3.org/1999/xlink" width="1000pt" height="1000pt" viewBox="0 0 1000 1000" version="1.1">
<g id="surface1">
<path style=" stroke:none;fill-rule:nonzero;fill:rgb(0%,0%,0%);fill-opacity:1;" d="M 116.988281 5.699219 C 105.253906 8.515625 94.304688 14.148438 88.046875 20.71875 C 82.414062 26.664062 76 39.804688 73.183594 51.070312 C 70.679688 61.238281 69.429688 749.441406 71.777344 779.949219 C 72.714844 791.058594 74.59375 803.730469 76 808.109375 C 79.285156 817.652344 90.238281 828.917969 101.8125 834.863281 C 110.730469 839.398438 465.863281 988.492188 479.785156 993.65625 C 490.582031 997.566406 509.511719 997.566406 520.148438 993.65625 C 534.074219 988.648438 889.046875 839.242188 897.808594 834.863281 C 909.542969 828.761719 920.335938 817.496094 923.621094 807.953125 C 925.03125 803.730469 926.75 793.246094 927.691406 784.644531 C 929.566406 764.460938 929.722656 84.550781 927.691406 64.367188 C 924.40625 29.480469 911.105469 12.429688 882.007812 5.542969 C 867.613281 2.257812 130.914062 2.257812 116.988281 5.699219 Z M 760.449219 134.457031 C 778.285156 140.085938 789.234375 150.570312 796.589844 168.875 C 800.03125 177.164062 800.1875 179.980469 800.65625 228.792969 L 801.125 280.105469 L 743.242188 280.105469 L 742.769531 236.300781 L 742.300781 192.496094 L 737.921875 188.273438 C 734.011719 184.203125 732.445312 183.890625 719.773438 183.421875 C 709.292969 182.953125 704.753906 183.421875 701.15625 185.300781 C 690.988281 190.621094 691.457031 184.046875 691.457031 325.789062 C 691.457031 450.632812 691.613281 454.699219 694.585938 459.550781 C 696.777344 463.148438 699.4375 465.023438 704.285156 466.433594 C 712.421875 468.625 731.664062 467.527344 736.199219 464.710938 C 743.710938 460.019531 743.867188 458.921875 744.335938 407.140625 L 744.804688 358.328125 L 773.277344 358.640625 L 801.75 359.109375 L 802.21875 407.609375 C 802.691406 458.453125 801.75 469.25 796.433594 483.640625 C 790.019531 500.382812 773.746094 513.679688 754.347656 517.746094 C 743.554688 519.9375 690.988281 519.9375 680.191406 517.746094 C 654.535156 512.429688 638.109375 494.28125 633.414062 466.277344 C 631.382812 453.917969 631.539062 195.78125 633.726562 183.109375 C 638.421875 154.011719 656.570312 136.175781 686.761719 131.484375 C 691.457031 130.699219 707.726562 130.386719 722.746094 130.542969 C 745.273438 131.011719 752 131.796875 760.449219 134.457031 Z M 326.9375 160.425781 L 326.9375 187.804688 L 254.972656 187.804688 L 254.972656 294.1875 L 323.808594 294.1875 L 323.808594 348.941406 L 254.972656 348.941406 L 254.972656 461.582031 L 291.425781 461.894531 L 327.722656 462.367188 L 327.722656 515.558594 L 261.699219 516.027344 L 195.523438 516.339844 L 195.523438 133.046875 L 326.9375 133.046875 Z M 461.792969 134.613281 C 484.167969 137.898438 501.21875 148.691406 509.355469 164.804688 C 517.019531 179.667969 517.800781 188.273438 517.800781 255.855469 C 517.800781 334.078125 516.394531 341.746094 500.28125 359.109375 C 487.765625 372.878906 473.214844 377.101562 439.265625 377.101562 L 414.546875 377.101562 L 414.546875 516.339844 L 355.097656 516.339844 L 355.097656 325.789062 C 355.097656 220.96875 355.566406 134.613281 356.195312 134.140625 C 357.757812 132.421875 450.0625 132.890625 461.792969 134.613281 Z M 601.96875 325.007812 L 602.28125 516.339844 L 542.832031 516.339844 L 542.832031 133.046875 L 572.246094 133.359375 L 601.5 133.828125 Z M 281.570312 611.613281 C 291.113281 615.210938 301.90625 622.097656 301.90625 624.441406 C 301.90625 626.320312 286.105469 645.875 284.386719 646.03125 C 283.761719 646.1875 280.789062 644.46875 277.660156 642.433594 C 264.828125 633.671875 247.621094 633.984375 237.140625 643.214844 C 221.339844 656.984375 224.308594 687.019531 242.457031 696.25 C 249.339844 699.847656 263.890625 700.476562 272.027344 697.660156 C 276.40625 696.09375 276.875 695.3125 276.875 689.054688 L 276.875 682.171875 L 253.410156 682.171875 L 253.410156 657.140625 L 306.601562 657.140625 L 306.601562 710.332031 L 299.246094 715.023438 C 284.386719 724.566406 276.25 726.757812 256.539062 726.601562 C 240.425781 726.601562 237.609375 726.132812 229.628906 722.535156 C 212.109375 714.398438 201.46875 702.507812 196.464844 685.457031 C 188.328125 657.765625 200.84375 627.414062 225.40625 614.742188 C 241.675781 606.453125 264.671875 605.199219 281.570312 611.613281 Z M 766.238281 608.640625 C 778.441406 610.675781 790.957031 615.367188 796.746094 619.90625 L 801.125 623.503906 L 793.929688 633.671875 C 790.019531 639.304688 786.261719 644 785.480469 644.3125 C 784.855469 644.46875 780.632812 642.902344 776.25 640.714844 C 760.605469 632.890625 744.648438 632.734375 742.144531 640.242188 C 740.582031 645.5625 745.898438 649.003906 763.890625 654.011719 C 783.289062 659.488281 790.644531 662.773438 796.589844 669.1875 C 802.0625 674.976562 804.097656 680.605469 804.097656 690.460938 C 803.941406 705.324219 796.433594 716.277344 781.414062 723.160156 C 770.617188 728.167969 743.867188 728.167969 729.941406 723.003906 C 719.773438 719.40625 705.535156 710.957031 705.535156 708.453125 C 705.535156 707.671875 709.136719 702.507812 713.671875 697.035156 L 721.808594 687.175781 L 731.351562 692.496094 C 748.714844 702.039062 767.957031 703.449219 771.558594 695.46875 C 774.214844 689.523438 769.992188 686.082031 755.128906 682.171875 C 726.8125 674.503906 718.523438 669.96875 713.359375 659.644531 C 705.222656 642.746094 712.421875 621.941406 729.472656 613.023438 C 740.269531 607.546875 751.0625 606.296875 766.238281 608.640625 Z M 420.804688 665.902344 C 434.105469 697.347656 445.367188 723.785156 445.523438 724.566406 C 445.835938 725.351562 438.796875 725.976562 429.097656 725.976562 L 412.203125 725.976562 L 408.132812 715.335938 L 404.066406 704.855469 L 381.382812 704.386719 L 358.695312 703.917969 L 354.472656 715.023438 L 350.09375 725.976562 L 333.824219 725.976562 C 324.90625 725.976562 317.550781 725.664062 317.550781 725.351562 C 317.550781 724.882812 327.878906 700.476562 340.394531 670.90625 C 352.910156 641.339844 363.859375 615.367188 364.796875 612.867188 C 366.363281 608.640625 366.363281 608.640625 381.539062 608.640625 L 396.714844 608.640625 Z M 504.972656 632.578125 L 518.273438 654.167969 L 525 643.527344 C 528.597656 637.742188 534.855469 627.726562 538.765625 621.46875 L 545.804688 610.207031 L 578.816406 610.207031 L 578.816406 725.976562 L 547.527344 725.976562 L 547.527344 659.488281 L 532.820312 682.015625 L 518.113281 704.699219 L 503.410156 682.171875 L 488.859375 659.644531 L 488.390625 692.808594 L 488.078125 726.132812 L 472.746094 725.664062 L 457.570312 725.195312 L 457.101562 667.621094 L 456.789062 610.050781 L 474.152344 610.519531 L 491.675781 610.988281 Z M 694.585938 623.503906 L 694.585938 636.800781 L 633.570312 636.800781 L 633.570312 654.011719 L 688.484375 654.011719 L 688.015625 666.839844 L 687.546875 679.824219 L 660.636719 680.292969 L 633.570312 680.605469 L 633.570312 697.816406 L 694.585938 697.816406 L 694.585938 725.976562 L 602.28125 725.976562 L 602.28125 610.207031 L 694.585938 610.207031 Z M 665.488281 861.925781 C 664.078125 863.492188 501.53125 916.839844 497.464844 917.308594 C 494.179688 917.464844 334.761719 863.179688 334.761719 861.613281 C 334.761719 860.988281 409.542969 860.519531 500.90625 860.519531 C 601.34375 860.519531 666.425781 861.144531 665.488281 861.925781 Z M 665.488281 861.925781 "/>
<path style=" stroke:none;fill-rule:nonzero;fill:rgb(0%,0%,0%);fill-opacity:1;" d="M 414.546875 255.699219 L 414.546875 325.476562 L 428.628906 325.476562 C 445.367188 325.476562 452.40625 323.128906 456.007812 316.246094 C 458.195312 312.019531 458.351562 304.042969 458.039062 253.511719 L 457.570312 195.625 L 453.191406 191.402344 C 449.121094 187.175781 448.027344 187.019531 431.757812 186.550781 L 414.546875 185.925781 Z M 414.546875 255.699219 "/>
<path style=" stroke:none;fill-rule:nonzero;fill:rgb(0%,0%,0%);fill-opacity:1;" d="M 375.90625 660.738281 C 373.089844 667.777344 370.429688 674.816406 369.804688 676.226562 C 369.023438 678.730469 370.117188 679.042969 381.382812 679.042969 L 393.898438 679.042969 L 387.953125 664.179688 C 384.824219 655.886719 381.851562 649.003906 381.539062 648.691406 C 381.226562 648.222656 378.566406 653.699219 375.90625 660.738281 Z M 375.90625 660.738281 "/>
</g>
</svg>
