<?xml version="1.0" encoding="UTF-8"?>
<svg xmlns="http://www.w3.org/2000/svg" xmlns:xlink="http://www.w3.org/1999/xlink" width="1000pt" height="1000pt" viewBox="0 0 1000 1000" version="1.1">
<g id="surface1">
<path style=" stroke:none;fill-rule:nonzero;fill:rgb(0%,0%,0%);fill-opacity:1;" d="M 950.335938 266.742188 C 965.214844 287.945312 968.5625 311.941406 960.378906 338.726562 L 806.917969 844.308594 C 799.851562 868.117188 785.621094 888.113281 764.230469 904.296875 C 742.839844 920.480469 720.050781 928.570312 695.871094 928.570312 L 180.804688 928.570312 C 152.15625 928.570312 124.535156 918.621094 97.933594 898.714844 C 71.335938 878.8125 52.828125 854.351562 42.410156 825.335938 C 33.480469 800.410156 33.109375 776.785156 41.292969 754.464844 C 41.292969 752.976562 41.851562 747.953125 42.96875 739.398438 C 44.085938 730.839844 44.828125 723.957031 45.199219 718.75 C 45.574219 715.773438 45.015625 711.773438 43.527344 706.753906 C 42.039062 701.730469 41.480469 698.101562 41.851562 695.871094 C 42.597656 691.777344 44.085938 687.871094 46.316406 684.152344 C 48.550781 680.429688 51.617188 676.058594 55.523438 671.039062 C 59.429688 666.015625 62.5 661.644531 64.730469 657.925781 C 73.289062 643.789062 81.660156 626.765625 89.84375 606.863281 C 98.027344 586.960938 103.609375 569.941406 106.585938 555.804688 C 107.699219 552.082031 107.792969 546.503906 106.863281 539.0625 C 105.933594 531.621094 105.839844 526.414062 106.585938 523.4375 C 107.699219 519.34375 110.863281 514.136719 116.070312 507.8125 C 121.28125 501.488281 124.441406 497.210938 125.558594 494.976562 C 133.371094 481.585938 141.183594 464.472656 148.996094 443.636719 C 156.808594 422.804688 161.457031 406.0625 162.945312 393.414062 C 163.320312 390.066406 162.851562 384.113281 161.550781 375.558594 C 160.25 367 160.34375 361.792969 161.832031 359.933594 C 163.320312 355.097656 167.410156 349.421875 174.105469 342.914062 C 180.804688 336.402344 184.894531 332.21875 186.382812 330.355469 C 193.453125 320.683594 201.359375 304.964844 210.101562 283.203125 C 218.84375 261.441406 223.957031 243.488281 225.445312 229.351562 C 225.820312 226.375 225.261719 221.632812 223.773438 215.121094 C 222.285156 208.613281 221.914062 203.683594 222.65625 200.335938 C 223.398438 197.359375 225.074219 194.011719 227.679688 190.289062 C 230.28125 186.570312 233.632812 182.292969 237.722656 177.457031 C 241.816406 172.617188 244.976562 168.710938 247.210938 165.738281 C 250.1875 161.273438 253.253906 155.597656 256.417969 148.714844 C 259.578125 141.835938 262.371094 135.324219 264.789062 129.183594 C 267.207031 123.046875 270.183594 116.351562 273.714844 109.097656 C 277.25 101.839844 280.878906 95.890625 284.597656 91.238281 C 288.320312 86.589844 293.246094 82.21875 299.386719 78.125 C 305.523438 74.03125 312.222656 71.894531 319.476562 71.707031 C 326.730469 71.523438 335.566406 72.542969 345.980469 74.777344 L 345.425781 76.449219 C 359.5625 73.101562 369.046875 71.429688 373.882812 71.429688 L 798.550781 71.429688 C 826.078125 71.429688 847.285156 81.84375 862.164062 102.679688 C 877.046875 123.511719 880.394531 147.695312 872.210938 175.222656 L 719.308594 680.804688 C 705.914062 725.074219 692.617188 753.628906 679.410156 766.460938 C 666.203125 779.296875 642.300781 785.714844 607.699219 785.714844 L 122.769531 785.714844 C 112.722656 785.714844 105.65625 788.503906 101.5625 794.085938 C 97.46875 800.039062 97.285156 808.035156 101.003906 818.082031 C 109.933594 844.121094 136.71875 857.144531 181.363281 857.144531 L 696.429688 857.144531 C 707.21875 857.144531 717.632812 854.257812 727.679688 848.492188 C 737.722656 842.726562 744.234375 835.007812 747.210938 825.335938 L 914.621094 274.554688 C 917.226562 266.367188 918.15625 255.765625 917.410156 242.746094 C 931.546875 248.324219 942.523438 256.324219 950.335938 266.742188 Z M 356.585938 267.855469 C 355.097656 272.695312 355.46875 276.878906 357.699219 280.414062 C 359.933594 283.945312 363.652344 285.714844 368.863281 285.714844 L 708.148438 285.714844 C 712.984375 285.714844 717.726562 283.945312 722.378906 280.414062 C 727.027344 276.878906 730.097656 272.695312 731.585938 267.855469 L 743.304688 232.144531 C 744.792969 227.304688 744.417969 223.121094 742.1875 219.585938 C 739.957031 216.054688 736.234375 214.285156 731.027344 214.285156 L 391.742188 214.285156 C 386.90625 214.285156 382.160156 216.054688 377.511719 219.585938 C 372.859375 223.121094 369.792969 227.304688 368.304688 232.144531 Z M 310.269531 410.714844 C 308.78125 415.550781 309.152344 419.734375 311.382812 423.269531 C 313.617188 426.804688 317.335938 428.570312 322.542969 428.570312 L 661.832031 428.570312 C 666.667969 428.570312 671.410156 426.804688 676.058594 423.269531 C 680.710938 419.734375 683.78125 415.550781 685.269531 410.714844 L 696.988281 375 C 698.476562 370.164062 698.101562 365.976562 695.871094 362.445312 C 693.636719 358.910156 689.917969 357.144531 684.710938 357.144531 L 345.425781 357.144531 C 340.585938 357.144531 335.84375 358.910156 331.195312 362.445312 C 326.542969 365.976562 323.476562 370.164062 321.988281 375 Z M 310.269531 410.714844 "/>
</g>
</svg>
