<?xml version="1.0" encoding="UTF-8"?>
<svg xmlns="http://www.w3.org/2000/svg" xmlns:xlink="http://www.w3.org/1999/xlink" width="1000pt" height="1000pt" viewBox="0 0 1000 1000" version="1.1">
<g id="surface1">
<path style=" stroke:none;fill-rule:nonzero;fill:rgb(0%,0%,0%);fill-opacity:1;" d="M 958.460938 682.980469 C 939.421875 548.363281 837.882812 450.671875 716.921875 450.671875 C 703.078125 450.671875 692.308594 460.480469 680.769531 470.671875 C 671.730469 478.941406 660.386719 489.132812 652.5 489.132812 L 529.179688 489.132812 C 559.117188 404.089844 529.527344 307.621094 453.359375 254.851562 L 450.335938 252.769531 C 423.875 234.429688 412.382812 200.25 422.46875 169.347656 C 438.429688 120.480469 419.164062 67.25 375.628906 39.90625 L 355.160156 72.46875 C 383.742188 90.414062 396.382812 125.34375 385.828125 157.703125 C 370.578125 204.34375 388.117188 256.429688 428.457031 284.394531 L 431.480469 286.476562 C 497.035156 331.90625 520.078125 417.316406 487.847656 489.132812 L 347.5 489.132812 C 339.613281 489.132812 328.460938 478.941406 319.421875 470.863281 C 307.882812 460.480469 297.117188 450.671875 283.078125 450.671875 C 162.113281 450.671875 60.578125 548.363281 41.539062 682.980469 C 30.769531 759.902344 48.65625 834.710938 90.578125 888.171875 C 122.691406 929.132812 166.730469 954.324219 215 959.132812 C 290.960938 966.632812 365.382812 924.902344 413.269531 849.902344 L 586.730469 849.902344 C 630.960938 919.132812 697.691406 960.09375 767.308594 960.09375 C 773.269531 960.09375 779.230469 959.710938 785 959.132812 C 833.269531 954.324219 877.308594 929.132812 909.421875 888.171875 C 951.347656 834.710938 969.230469 759.902344 958.460938 682.980469 Z M 365.394531 724.570312 L 288.472656 724.570312 L 288.472656 801.652344 L 250.011719 801.652344 L 250.011719 724.570312 L 173.085938 724.570312 L 173.085938 686.109375 L 250.011719 686.109375 L 250.011719 609.015625 L 288.472656 609.015625 L 288.472656 686.109375 L 365.394531 686.109375 Z M 634.625 724.570312 L 576.933594 724.570312 L 576.933594 686.109375 L 634.625 686.109375 Z M 730.78125 840.179688 L 692.316406 840.179688 L 692.316406 782.382812 L 730.78125 782.382812 Z M 730.78125 628.285156 L 692.316406 628.285156 L 692.316406 570.488281 L 730.78125 570.488281 Z M 846.164062 724.570312 L 788.472656 724.570312 L 788.472656 686.109375 L 846.164062 686.109375 Z M 846.164062 724.570312 "/>
</g>
</svg>
