<?xml version="1.0" encoding="UTF-8" standalone="no"?>
<svg
   xmlns:dc="http://purl.org/dc/elements/1.1/"
   xmlns:cc="http://creativecommons.org/ns#"
   xmlns:rdf="http://www.w3.org/1999/02/22-rdf-syntax-ns#"
   xmlns:svg="http://www.w3.org/2000/svg"
   xmlns="http://www.w3.org/2000/svg"
   xmlns:sodipodi="http://sodipodi.sourceforge.net/DTD/sodipodi-0.dtd"
   xmlns:inkscape="http://www.inkscape.org/namespaces/inkscape"
   width="1000pt"
   height="1000pt"
   viewBox="0 0 1000 1000"
   version="1.1"
   id="svg1451"
   sodipodi:docname="ic_status_complete.svg"
   inkscape:version="0.92.4 (5da689c313, 2019-01-14)">
  <metadata
     id="metadata1457">
    <rdf:RDF>
      <cc:Work
         rdf:about="">
        <dc:format>image/svg+xml</dc:format>
        <dc:type
           rdf:resource="http://purl.org/dc/dcmitype/StillImage" />
      </cc:Work>
    </rdf:RDF>
  </metadata>
  <defs
     id="defs1455" />
  <sodipodi:namedview
     pagecolor="#ffffff"
     bordercolor="#666666"
     borderopacity="1"
     objecttolerance="10"
     gridtolerance="10"
     guidetolerance="10"
     inkscape:pageopacity="0"
     inkscape:pageshadow="2"
     inkscape:window-width="2560"
     inkscape:window-height="1346"
     id="namedview1453"
     showgrid="false"
     inkscape:zoom="0.177"
     inkscape:cx="666.66667"
     inkscape:cy="666.66667"
     inkscape:window-x="-11"
     inkscape:window-y="-11"
     inkscape:window-maximized="1"
     inkscape:current-layer="svg1451" />
  <g
     id="surface1"
     transform="matrix(1.2149962,0,0,1.2149962,-107.49808,-107.49808)">
    <path
       style="fill:#000000;fill-opacity:1;fill-rule:nonzero;stroke:none"
       d="M 691.25,315.83203 416.66797,590.41797 267.08203,441.25 208.33203,500 416.66797,708.33203 750,375 Z M 500,83.332031 C 270,83.332031 83.332031,270 83.332031,500 83.332031,730 270,916.66797 500,916.66797 730,916.66797 916.66797,730 916.66797,500 916.66797,270 730,83.332031 500,83.332031 Z m 0,749.999999 C 315.83203,833.33203 166.66797,684.16797 166.66797,500 166.66797,315.83203 315.83203,166.66797 500,166.66797 c 184.16797,0 333.33203,149.16406 333.33203,333.33203 0,184.16797 -149.16406,333.33203 -333.33203,333.33203 z m 0,0"
       id="path1448"
       inkscape:connector-curvature="0" />
  </g>
</svg>
