<?xml version="1.0" encoding="UTF-8" standalone="no"?>
<svg
   xmlns:dc="http://purl.org/dc/elements/1.1/"
   xmlns:cc="http://creativecommons.org/ns#"
   xmlns:rdf="http://www.w3.org/1999/02/22-rdf-syntax-ns#"
   xmlns:svg="http://www.w3.org/2000/svg"
   xmlns="http://www.w3.org/2000/svg"
   xmlns:sodipodi="http://sodipodi.sourceforge.net/DTD/sodipodi-0.dtd"
   xmlns:inkscape="http://www.inkscape.org/namespaces/inkscape"
   width="1000pt"
   height="1000pt"
   viewBox="0 0 1000 1000"
   version="1.1"
   id="svg1473"
   sodipodi:docname="ic_status_playing.svg"
   inkscape:version="0.92.4 (5da689c313, 2019-01-14)">
  <metadata
     id="metadata1479">
    <rdf:RDF>
      <cc:Work
         rdf:about="">
        <dc:format>image/svg+xml</dc:format>
        <dc:type
           rdf:resource="http://purl.org/dc/dcmitype/StillImage" />
      </cc:Work>
    </rdf:RDF>
  </metadata>
  <defs
     id="defs1477" />
  <sodipodi:namedview
     pagecolor="#ffffff"
     bordercolor="#666666"
     borderopacity="1"
     objecttolerance="10"
     gridtolerance="10"
     guidetolerance="10"
     inkscape:pageopacity="0"
     inkscape:pageshadow="2"
     inkscape:window-width="2560"
     inkscape:window-height="1346"
     id="namedview1475"
     showgrid="false"
     inkscape:zoom="0.177"
     inkscape:cx="666.66667"
     inkscape:cy="666.66667"
     inkscape:window-x="-11"
     inkscape:window-y="-11"
     inkscape:window-maximized="1"
     inkscape:current-layer="svg1473" />
  <g
     id="surface1"
     transform="matrix(1.0806494,0,0,1.0806494,-40.324903,-40.324715)">
    <path
       style="fill:#000000;fill-opacity:1;fill-rule:nonzero;stroke:none"
       d="M 958.46094,682.98047 C 939.42187,548.36328 837.88281,450.67187 716.92187,450.67187 c -13.84375,0 -24.61328,9.8086 -36.15234,20 -9.03906,8.26954 -20.38281,18.46094 -28.26953,18.46094 H 529.17969 c 29.9375,-85.04297 0.34765,-181.51172 -75.82032,-234.28125 l -3.02343,-2.08203 C 423.875,234.42969 412.38281,200.25 422.46875,169.34766 438.42969,120.48047 419.16406,67.25 375.62891,39.90625 l -20.46875,32.5625 c 28.58203,17.945312 41.22265,52.875 30.66796,85.23437 -15.25,46.64063 2.28907,98.72657 42.62891,126.69141 l 3.02344,2.08203 c 65.55469,45.42969 88.59765,130.83985 56.36719,202.65625 H 347.5 c -7.88672,0 -19.03906,-10.1914 -28.07813,-18.26953 -11.53906,-10.38281 -22.30468,-20.19141 -36.34375,-20.19141 -120.96484,0 -222.499995,97.69141 -241.539058,232.3086 -10.769531,76.92187 7.117188,151.73047 49.039063,205.1914 32.113285,40.96094 76.152345,66.15235 124.421875,70.96094 75.96094,7.5 150.38281,-34.23047 198.26953,-109.23047 h 173.46094 c 44.23047,69.23047 110.96094,110.19141 180.57812,110.19141 5.96094,0 11.92188,-0.38281 17.69141,-0.96094 48.26953,-4.80859 92.30859,-30 124.42187,-70.96094 41.92579,-53.46093 59.8086,-128.26953 49.03907,-205.1914 z m -593.06641,41.58984 h -76.92187 v 77.08203 h -38.46094 v -77.08203 h -76.92578 v -38.46094 h 76.92578 v -77.09375 h 38.46094 v 77.09375 h 76.92187 z m 269.23047,0 H 576.93359 V 686.10937 H 634.625 Z m 96.15625,115.60938 h -38.46484 v -57.79688 h 38.46484 z m 0,-211.89453 h -38.46484 v -57.79688 h 38.46484 z m 115.38281,96.28515 h -57.6914 v -38.46094 h 57.6914 z m 0,0"
       id="path1470"
       inkscape:connector-curvature="0" />
  </g>
</svg>
