<?xml version="1.0" encoding="UTF-8"?>
<svg xmlns="http://www.w3.org/2000/svg" xmlns:xlink="http://www.w3.org/1999/xlink" width="1000pt" height="1000pt" viewBox="0 0 1000 1000" version="1.1">
<g id="surface1">
<path style="fill:none;stroke-width:2;stroke-linecap:round;stroke-linejoin:round;stroke:rgb(0%,0%,0%);stroke-opacity:1;stroke-miterlimit:4;" d="M 15 12 C 15 13.656844 13.656844 15 12 15 C 10.343156 15 9 13.656844 9 12 C 9 10.343156 10.343156 9 12 9 C 13.656844 9 15 10.343156 15 12 Z M 15 12 " transform="matrix(41.666667,0,0,41.666667,0,0)"/>
<path style="fill:none;stroke-width:2;stroke-linecap:butt;stroke-linejoin:miter;stroke:rgb(0%,0%,0%);stroke-opacity:1;stroke-miterlimit:10;" d="M 19.399969 15 C 19.127625 15.617063 19.258312 16.337813 19.729969 16.819969 L 19.789969 16.879969 C 20.165531 17.255156 20.376563 17.764219 20.376563 18.295031 C 20.376563 18.825844 20.165531 19.334906 19.789969 19.71 C 19.414875 20.085563 18.905812 20.296594 18.375 20.296594 C 17.844188 20.296594 17.335125 20.085563 16.960031 19.71 L 16.900031 19.65 C 16.417781 19.178344 15.697125 19.047656 15.079969 19.32 C 14.475563 19.579031 14.082656 20.172375 14.080031 20.830031 L 14.080031 21 C 14.080031 22.104563 13.184531 22.999969 12.079969 22.999969 C 10.975406 22.999969 10.08 22.104563 10.08 21 L 10.08 20.91 C 10.064156 20.232656 9.635906 19.633875 9 19.399969 C 8.382938 19.127625 7.662187 19.258312 7.180031 19.729969 L 7.120031 19.789969 C 6.744844 20.165531 6.235781 20.376563 5.704969 20.376563 C 5.174156 20.376563 4.665094 20.165531 4.29 19.789969 C 3.914438 19.414875 3.703406 18.905812 3.703406 18.375 C 3.703406 17.844188 3.914438 17.335125 4.29 16.960031 L 4.35 16.900031 C 4.821656 16.417781 4.952344 15.697125 4.68 15.079969 C 4.420969 14.475563 3.827625 14.082656 3.169969 14.080031 L 3 14.080031 C 1.895438 14.080031 1.000031 13.184531 1.000031 12.079969 C 1.000031 10.975406 1.895438 10.08 3 10.08 L 3.09 10.08 C 3.767344 10.064156 4.366125 9.635906 4.600031 9 C 4.872375 8.382938 4.741688 7.662187 4.270031 7.180031 L 4.210031 7.120031 C 3.834469 6.744844 3.623438 6.235781 3.623438 5.704969 C 3.623438 5.174156 3.834469 4.665094 4.210031 4.29 C 4.585125 3.914438 5.094188 3.703406 5.625 3.703406 C 6.155812 3.703406 6.664875 3.914438 7.039969 4.29 L 7.099969 4.35 C 7.582219 4.821656 8.302875 4.952344 8.920031 4.68 L 9 4.68 C 9.6045 4.420969 9.997406 3.827625 10.000031 3.169969 L 10.000031 3 C 10.000031 1.895438 10.895437 1.000031 12 1.000031 C 13.104563 1.000031 13.999969 1.895438 13.999969 3 L 13.999969 3.09 C 14.002594 3.747656 14.3955 4.340906 15 4.600031 C 15.617063 4.872375 16.337813 4.741688 16.819969 4.270031 L 16.879969 4.210031 C 17.255156 3.834469 17.764219 3.623438 18.295031 3.623438 C 18.825844 3.623438 19.334906 3.834469 19.71 4.210031 C 20.085563 4.585125 20.296594 5.094188 20.296594 5.625 C 20.296594 6.155812 20.085563 6.664875 19.71 7.039969 L 19.65 7.099969 C 19.178344 7.582219 19.047656 8.302875 19.32 8.920031 L 19.32 9 C 19.579031 9.6045 20.172375 9.997406 20.830031 10.000031 L 21 10.000031 C 22.104563 10.000031 22.999969 10.895437 22.999969 12 C 22.999969 13.104563 22.104563 13.999969 21 13.999969 L 20.91 13.999969 C 20.252344 14.002594 19.659094 14.3955 19.399969 15 Z M 19.399969 15 " transform="matrix(41.666667,0,0,41.666667,0,0)"/>
</g>
</svg>
