<?xml version="1.0" encoding="UTF-8"?>
<svg xmlns="http://www.w3.org/2000/svg" xmlns:xlink="http://www.w3.org/1999/xlink" width="1000pt" height="1000pt" viewBox="0 0 1000 1000" version="1.1">
<g id="surface1">
<path style=" stroke:none;fill-rule:nonzero;fill:rgb(0%,0%,0%);fill-opacity:1;" d="M 691.25 315.832031 L 416.667969 590.417969 L 267.082031 441.25 L 208.332031 500 L 416.667969 708.332031 L 750 375 Z M 500 83.332031 C 270 83.332031 83.332031 270 83.332031 500 C 83.332031 730 270 916.667969 500 916.667969 C 730 916.667969 916.667969 730 916.667969 500 C 916.667969 270 730 83.332031 500 83.332031 Z M 500 833.332031 C 315.832031 833.332031 166.667969 684.167969 166.667969 500 C 166.667969 315.832031 315.832031 166.667969 500 166.667969 C 684.167969 166.667969 833.332031 315.832031 833.332031 500 C 833.332031 684.167969 684.167969 833.332031 500 833.332031 Z M 500 833.332031 "/>
</g>
</svg>
