<?xml version="1.0" encoding="UTF-8" standalone="no"?>
<svg
   xmlns:dc="http://purl.org/dc/elements/1.1/"
   xmlns:cc="http://creativecommons.org/ns#"
   xmlns:rdf="http://www.w3.org/1999/02/22-rdf-syntax-ns#"
   xmlns:svg="http://www.w3.org/2000/svg"
   xmlns="http://www.w3.org/2000/svg"
   xmlns:sodipodi="http://sodipodi.sourceforge.net/DTD/sodipodi-0.dtd"
   xmlns:inkscape="http://www.inkscape.org/namespaces/inkscape"
   width="1000pt"
   height="1000pt"
   viewBox="0 0 1000 1000"
   version="1.1"
   id="svg1523"
   sodipodi:docname="ic_status_redoing.svg"
   inkscape:version="0.92.4 (5da689c313, 2019-01-14)">
  <metadata
     id="metadata1529">
    <rdf:RDF>
      <cc:Work
         rdf:about="">
        <dc:format>image/svg+xml</dc:format>
        <dc:type
           rdf:resource="http://purl.org/dc/dcmitype/StillImage" />
      </cc:Work>
    </rdf:RDF>
  </metadata>
  <defs
     id="defs1527" />
  <sodipodi:namedview
     pagecolor="#ffffff"
     bordercolor="#666666"
     borderopacity="1"
     objecttolerance="10"
     gridtolerance="10"
     guidetolerance="10"
     inkscape:pageopacity="0"
     inkscape:pageshadow="2"
     inkscape:window-width="2560"
     inkscape:window-height="1346"
     id="namedview1525"
     showgrid="false"
     inkscape:zoom="0.177"
     inkscape:cx="666.66667"
     inkscape:cy="666.66667"
     inkscape:window-x="-11"
     inkscape:window-y="-11"
     inkscape:window-maximized="1"
     inkscape:current-layer="svg1523" />
  <g
     id="surface1"
     transform="matrix(1.4971857,0,0,1.4971857,-248.90283,-248.59287)">
    <path
       style="fill:#000000;fill-opacity:1;fill-rule:nonzero;stroke:none"
       d="M 735.41797,264.58203 C 675,204.16797 592.08203,166.66797 500,166.66797 315.83203,166.66797 167.08203,315.83203 167.08203,500 c 0,184.16797 148.75,333.33203 332.91797,333.33203 155.41797,0 285,-106.25 322.08203,-250 H 735.41797 C 701.25,680.41797 608.75,750 500,750 362.08203,750 250,637.91797 250,500 250,362.08203 362.08203,250 500,250 c 69.16797,0 130.83203,28.75 175.83203,74.16797 L 541.66797,458.33203 H 833.33203 V 166.66797 Z m 0,0"
       id="path1520"
       inkscape:connector-curvature="0" />
  </g>
</svg>
