<?xml version="1.0" encoding="UTF-8"?>
<svg xmlns="http://www.w3.org/2000/svg" xmlns:xlink="http://www.w3.org/1999/xlink" width="1000pt" height="1000pt" viewBox="0 0 1000 1000" version="1.1">
<g id="surface1">
<path style=" stroke:none;fill-rule:nonzero;fill:rgb(0%,0%,0%);fill-opacity:1;" d="M 500 481.25 C 401.667969 389.582031 270 333.332031 125 333.332031 L 125 791.667969 C 270 791.667969 401.667969 847.917969 500 939.582031 C 598.332031 848.332031 730 791.667969 875 791.667969 L 875 333.332031 C 730 333.332031 598.332031 389.582031 500 481.25 Z M 500 333.332031 C 569.167969 333.332031 625 277.5 625 208.332031 C 625 139.167969 569.167969 83.332031 500 83.332031 C 430.832031 83.332031 375 139.167969 375 208.332031 C 375 277.5 430.832031 333.332031 500 333.332031 Z M 500 333.332031 "/>
</g>
</svg>
