<?xml version="1.0" encoding="UTF-8"?>
<svg xmlns="http://www.w3.org/2000/svg" xmlns:xlink="http://www.w3.org/1999/xlink" width="1000pt" height="1000pt" viewBox="0 0 1000 1000" version="1.1">
<g id="surface1">
<path style=" stroke:none;fill-rule:nonzero;fill:rgb(0%,0%,0%);fill-opacity:1;" d="M 735.417969 264.582031 C 675 204.167969 592.082031 166.667969 500 166.667969 C 315.832031 166.667969 167.082031 315.832031 167.082031 500 C 167.082031 684.167969 315.832031 833.332031 500 833.332031 C 655.417969 833.332031 785 727.082031 822.082031 583.332031 L 735.417969 583.332031 C 701.25 680.417969 608.75 750 500 750 C 362.082031 750 250 637.917969 250 500 C 250 362.082031 362.082031 250 500 250 C 569.167969 250 630.832031 278.75 675.832031 324.167969 L 541.667969 458.332031 L 833.332031 458.332031 L 833.332031 166.667969 Z M 735.417969 264.582031 "/>
</g>
</svg>
