<?xml version="1.0" encoding="UTF-8"?>
<svg xmlns="http://www.w3.org/2000/svg" xmlns:xlink="http://www.w3.org/1999/xlink" width="1000pt" height="1000pt" viewBox="0 0 1000 1000" version="1.1">
<g id="surface1">
<path style=" stroke:none;fill-rule:nonzero;fill:rgb(0%,0%,0%);fill-opacity:1;" d="M 869.121094 698.121094 L 130.878906 698.121094 C 120.09375 698.121094 111.347656 689.375 111.347656 678.589844 L 111.347656 160.273438 C 111.347656 149.488281 120.09375 140.742188 130.878906 140.742188 L 869.121094 140.742188 C 879.90625 140.742188 888.652344 149.488281 888.652344 160.273438 L 888.652344 678.589844 C 888.652344 689.375 879.90625 698.121094 869.121094 698.121094 Z M 150.410156 659.058594 L 849.589844 659.058594 L 849.589844 179.804688 L 150.410156 179.804688 Z M 150.410156 659.058594 "/>
<path style=" stroke:none;fill-rule:nonzero;fill:rgb(0%,0%,0%);fill-opacity:1;" d="M 372.960938 585.65625 C 369.585938 585.65625 366.21875 584.785156 363.195312 583.042969 C 357.152344 579.554688 353.429688 573.105469 353.429688 566.125 L 353.429688 272.738281 C 353.429688 265.761719 357.152344 259.3125 363.195312 255.824219 C 369.238281 252.335938 376.683594 252.335938 382.726562 255.824219 L 636.804688 402.515625 C 642.847656 406.003906 646.570312 412.453125 646.570312 419.429688 C 646.570312 426.410156 642.847656 432.855469 636.804688 436.34375 L 382.726562 583.039062 C 379.703125 584.785156 376.335938 585.65625 372.960938 585.65625 Z M 392.492188 306.570312 L 392.492188 532.296875 L 587.976562 419.429688 Z M 392.492188 306.570312 "/>
<path style=" stroke:none;fill-rule:nonzero;fill:rgb(0%,0%,0%);fill-opacity:1;" d="M 869.121094 812.378906 L 279.296875 812.378906 C 268.511719 812.378906 259.765625 803.636719 259.765625 792.847656 C 259.765625 782.0625 268.511719 773.316406 279.296875 773.316406 L 869.121094 773.316406 C 879.90625 773.316406 888.652344 782.0625 888.652344 792.847656 C 888.652344 803.636719 879.90625 812.378906 869.121094 812.378906 Z M 869.121094 812.378906 "/>
<path style=" stroke:none;fill-rule:nonzero;fill:rgb(0%,0%,0%);fill-opacity:1;" d="M 195.3125 812.378906 L 130.878906 812.378906 C 120.09375 812.378906 111.347656 803.636719 111.347656 792.847656 C 111.347656 782.0625 120.09375 773.316406 130.878906 773.316406 L 195.3125 773.316406 C 206.097656 773.316406 214.84375 782.0625 214.84375 792.847656 C 214.84375 803.636719 206.097656 812.378906 195.3125 812.378906 Z M 195.3125 812.378906 "/>
<path style=" stroke:none;fill-rule:nonzero;fill:rgb(0%,0%,0%);fill-opacity:1;" d="M 255.859375 859.253906 L 218.75 859.253906 C 195.054688 859.253906 175.78125 839.980469 175.78125 816.285156 L 175.78125 769.410156 C 175.78125 745.71875 195.054688 726.441406 218.75 726.441406 L 255.859375 726.441406 C 279.554688 726.441406 298.828125 745.71875 298.828125 769.410156 L 298.828125 816.285156 C 298.828125 839.980469 279.554688 859.253906 255.859375 859.253906 Z M 218.75 765.503906 C 216.59375 765.503906 214.84375 767.257812 214.84375 769.410156 L 214.84375 816.285156 C 214.84375 818.441406 216.59375 820.191406 218.75 820.191406 L 255.859375 820.191406 C 258.015625 820.191406 259.765625 818.441406 259.765625 816.285156 L 259.765625 769.410156 C 259.765625 767.257812 258.015625 765.503906 255.859375 765.503906 Z M 218.75 765.503906 "/>
</g>
</svg>
